<svg width="81" height="80" viewBox="0 0 81 80" fill="none" xmlns="http://www.w3.org/2000/svg">
<path d="M49.9296 27.4298L27.9307 49.4287C27.0629 50.2965 27.0629 51.7035 27.9307 52.5713C28.7986 53.4392 30.2056 53.4392 31.0734 52.5713L53.0723 30.5725C53.9401 29.7046 53.9401 28.2976 53.0723 27.4298C52.2045 26.5619 50.7974 26.5619 49.9296 27.4298Z" fill="#FC3A4D"/>
<path opacity="0.3" d="M53.0719 49.4276L31.0731 27.4288C30.2052 26.5609 28.7982 26.5609 27.9304 27.4288C27.0625 28.2966 27.0625 29.7036 27.9304 30.5715L49.9292 52.5703C50.7971 53.4382 52.2041 53.4382 53.0719 52.5703C53.9398 51.7025 53.9398 50.2955 53.0719 49.4276Z" fill="#FC3A4D"/>
<circle cx="40.5" cy="40" r="39" stroke="#FC3A4D" stroke-width="2"/>
</svg>
