<svg width="24" height="24" viewBox="0 0 24 24" fill="none" xmlns="http://www.w3.org/2000/svg">
<path d="M21.4771 12.5013C21.3869 12.3167 21.3869 12.105 21.4771 11.9205L22.3134 10.2098C22.779 9.25725 22.4101 8.12194 21.4735 7.62503L19.7915 6.73255C19.61 6.63629 19.4856 6.46498 19.4501 6.2627L19.1211 4.38713C18.9379 3.34287 17.972 2.64115 16.9224 2.78964L15.037 3.05634C14.8335 3.08507 14.6323 3.01964 14.4847 2.87683L13.1161 1.55291C12.3541 0.815718 11.1603 0.815674 10.3983 1.55291L9.02975 2.87697C8.88209 3.01981 8.68086 3.08511 8.4774 3.05647L6.59202 2.78978C5.54211 2.64119 4.5765 3.343 4.39331 4.38726L4.06435 6.26275C4.02883 6.46507 3.90442 6.63634 3.72299 6.73264L2.04094 7.62512C1.1044 8.12198 0.735496 9.25738 1.20109 10.2099L2.0373 11.9206C2.12751 12.1052 2.12751 12.3169 2.0373 12.5014L1.20105 14.2121C0.735453 15.1646 1.10436 16.2999 2.04089 16.7968L3.72295 17.6893C3.90442 17.7856 4.02883 17.9569 4.06435 18.1592L4.39331 20.0347C4.56007 20.9854 5.37522 21.6521 6.31206 21.652C6.40433 21.652 6.49796 21.6455 6.59207 21.6322L8.47745 21.3655C8.68077 21.3366 8.88213 21.4022 9.0298 21.545L10.3983 22.8689C10.7794 23.2375 11.2682 23.4218 11.7572 23.4218C12.2461 23.4217 12.7352 23.2375 13.1161 22.8689L14.4847 21.545C14.6323 21.4022 14.8336 21.3369 15.037 21.3655L16.9224 21.6322C17.9724 21.7807 18.9379 21.079 19.1211 20.0347L19.4501 18.1592C19.4856 17.9569 19.61 17.7856 19.7915 17.6893L21.4735 16.7968C22.4101 16.3 22.779 15.1646 22.3134 14.2121L21.4771 12.5013ZM9.17081 6.39158C10.4781 6.39158 11.5417 7.45516 11.5417 8.76244C11.5417 10.0697 10.4781 11.1333 9.17081 11.1333C7.86353 11.1333 6.79995 10.0697 6.79995 8.76244C6.79995 7.45516 7.86353 6.39158 9.17081 6.39158ZM7.94708 16.9354C7.82083 17.0616 7.65534 17.1248 7.48989 17.1248C7.32445 17.1248 7.15891 17.0617 7.0327 16.9354C6.7802 16.6829 6.7802 16.2735 7.0327 16.021L15.5673 7.48638C15.8198 7.23388 16.2292 7.23388 16.4817 7.48638C16.7342 7.73889 16.7342 8.1483 16.4817 8.4008L7.94708 16.9354ZM14.3435 18.0303C13.0362 18.0303 11.9727 16.9667 11.9727 15.6594C11.9727 14.3521 13.0362 13.2886 14.3435 13.2886C15.6508 13.2886 16.7144 14.3521 16.7144 15.6594C16.7144 16.9667 15.6508 18.0303 14.3435 18.0303Z" fill="white"/>
<path d="M14.3433 14.582C13.7491 14.582 13.2656 15.0655 13.2656 15.6597C13.2656 16.2539 13.749 16.7373 14.3433 16.7373C14.9375 16.7373 15.4209 16.2539 15.4209 15.6597C15.4209 15.0655 14.9375 14.582 14.3433 14.582Z" fill="white"/>
<path d="M9.1709 7.68555C8.57668 7.68555 8.09326 8.16897 8.09326 8.76318C8.09326 9.3574 8.57668 9.84086 9.1709 9.84086C9.76511 9.84086 10.2486 9.35744 10.2486 8.76318C10.2485 8.16901 9.76511 7.68555 9.1709 7.68555Z" fill="white"/>
</svg>
