<svg width="17" height="16" viewBox="0 0 17 16" fill="none" xmlns="http://www.w3.org/2000/svg">
<path d="M8.49999 1.33301C4.82666 1.33301 1.83333 4.32634 1.83333 7.99967C1.83333 11.673 4.82666 14.6663 8.49999 14.6663C12.1733 14.6663 15.1667 11.673 15.1667 7.99967C15.1667 4.32634 12.1733 1.33301 8.49999 1.33301ZM7.99999 5.33301C7.99999 5.05967 8.22666 4.83301 8.49999 4.83301C8.77333 4.83301 8.99999 5.05967 8.99999 5.33301V8.66634C8.99999 8.93967 8.77333 9.16634 8.49999 9.16634C8.22666 9.16634 7.99999 8.93967 7.99999 8.66634V5.33301ZM9.11333 10.9197C9.07999 11.0063 9.03333 11.073 8.97333 11.1397C8.90666 11.1997 8.83333 11.2463 8.75333 11.2797C8.67333 11.313 8.58666 11.333 8.49999 11.333C8.41333 11.333 8.32666 11.313 8.24666 11.2797C8.16666 11.2463 8.09333 11.1997 8.02666 11.1397C7.96666 11.073 7.91999 11.0063 7.88666 10.9197C7.85333 10.8397 7.83333 10.753 7.83333 10.6663C7.83333 10.5797 7.85333 10.493 7.88666 10.413C7.91999 10.333 7.96666 10.2597 8.02666 10.193C8.09333 10.133 8.16666 10.0863 8.24666 10.053C8.40666 9.98634 8.59333 9.98634 8.75333 10.053C8.83333 10.0863 8.90666 10.133 8.97333 10.193C9.03333 10.2597 9.07999 10.333 9.11333 10.413C9.14666 10.493 9.16666 10.5797 9.16666 10.6663C9.16666 10.753 9.14666 10.8397 9.11333 10.9197Z" fill="#F9A11B"/>
</svg>
