<svg width="25" height="24" viewBox="0 0 25 24" fill="none" xmlns="http://www.w3.org/2000/svg">
<path d="M7.5 5C7.5 3.34 8.84 2 10.5 2H14.5C16.16 2 17.5 3.34 17.5 5C17.5 5.55 17.05 6 16.5 6H8.5C7.95 6 7.5 5.55 7.5 5Z" fill="white"/>
<path d="M18.25 15C18.25 15.41 17.91 15.75 17.5 15.75H16.5V19C16.5 20.66 15.16 22 13.5 22H11.5C9.84 22 8.5 20.66 8.5 19V15.75H7.5C7.09 15.75 6.75 15.41 6.75 15C6.75 14.59 7.09 14.25 7.5 14.25H17.5C17.91 14.25 18.25 14.59 18.25 15Z" fill="white"/>
<path d="M18.5 7H6.5C4.5 7 3.5 8 3.5 10V15C3.5 17 4.5 18 6.5 18H6.875C7.22018 18 7.5 17.7202 7.5 17.375C7.5 17.0298 7.21131 16.7604 6.88841 16.6384C6.22619 16.3882 5.75 15.7453 5.75 15C5.75 14.04 6.54 13.25 7.5 13.25H17.5C18.46 13.25 19.25 14.04 19.25 15C19.25 15.7453 18.7738 16.3882 18.1116 16.6384C17.7887 16.7604 17.5 17.0298 17.5 17.375C17.5 17.7202 17.7798 18 18.125 18H18.5C20.5 18 21.5 17 21.5 15V10C21.5 8 20.5 7 18.5 7ZM10.5 11.75H7.5C7.09 11.75 6.75 11.41 6.75 11C6.75 10.59 7.09 10.25 7.5 10.25H10.5C10.91 10.25 11.25 10.59 11.25 11C11.25 11.41 10.91 11.75 10.5 11.75Z" fill="white"/>
</svg>
