<svg width="25" height="24" viewBox="0 0 25 24" fill="none" xmlns="http://www.w3.org/2000/svg">
<path d="M16.69 2H8.31C4.67 2 2.5 4.17 2.5 7.81V16.18C2.5 19.83 4.67 22 8.31 22H16.68C20.32 22 22.49 19.83 22.49 16.19V7.81C22.5 4.17 20.33 2 16.69 2ZM12.5 18.01C9.33 18.01 6.75 15.43 6.75 12.26C6.75 11.12 7.08 10.01 7.72 9.07C7.95 8.72 8.42 8.63 8.76 8.86C9.1 9.09 9.2 9.56 8.96 9.9C8.5 10.6 8.25 11.42 8.25 12.26C8.25 14.6 10.16 16.51 12.5 16.51C14.84 16.51 16.75 14.6 16.75 12.26C16.75 9.92 14.84 8.01 12.5 8.01C12.31 8.01 12.13 8.03 11.94 8.05L12.5 8.46C12.83 8.7 12.91 9.17 12.66 9.51C12.51 9.71 12.28 9.82 12.05 9.82C11.9 9.82 11.74 9.77 11.61 9.68L9.67 8.25C9.67 8.25 9.66 8.24 9.65 8.23C9.64 8.22 9.63 8.22 9.62 8.21C9.59 8.19 9.58 8.15 9.55 8.12C9.52 8.08 9.49 8.05 9.46 8C9.44 7.96 9.43 7.91 9.41 7.87C9.4 7.82 9.38 7.78 9.38 7.73C9.38 7.68 9.38 7.64 9.39 7.59C9.39 7.54 9.39 7.5 9.41 7.45C9.41 7.4 9.44 7.36 9.46 7.31C9.48 7.28 9.48 7.24 9.51 7.2C9.52 7.2 9.53 7.19 9.54 7.18C9.55 7.17 9.55 7.16 9.56 7.15L11.23 5.24C11.5 4.93 11.98 4.89 12.29 5.17C12.6 5.44 12.63 5.92 12.36 6.23L12.08 6.55C12.22 6.54 12.36 6.52 12.51 6.52C15.68 6.52 18.26 9.1 18.26 12.27C18.26 15.44 15.67 18.01 12.5 18.01Z" fill="white"/>
</svg>
