<svg width="24" height="24" viewBox="0 0 24 24" fill="none" xmlns="http://www.w3.org/2000/svg">
<g clip-path="url(#clip0_926_1818)">
<path fill-rule="evenodd" clip-rule="evenodd" d="M4 9.67494L10.8803 13.6473C10.9543 13.69 11.032 13.7209 11.1111 13.7405V21.4447L4.4907 17.5267C4.18655 17.3467 4 17.0195 4 16.6661V9.67494ZM20 9.56934V16.6661C20 17.0195 19.8134 17.3467 19.5093 17.5267L12.8889 21.4447V13.673C12.905 13.665 12.921 13.6564 12.9368 13.6473L20 9.56934Z" fill="#012257"/>
<path opacity="0.3" fill-rule="evenodd" clip-rule="evenodd" d="M4.21582 7.74707C4.29986 7.64095 4.40593 7.55126 4.5296 7.48539L11.5296 3.75703C11.8235 3.60052 12.1759 3.60052 12.4698 3.75703L19.4698 7.48539C19.5651 7.53616 19.65 7.6011 19.7224 7.6768L12.0476 12.1078C11.9972 12.137 11.9507 12.1703 11.9082 12.2071C11.8658 12.1703 11.8193 12.137 11.7689 12.1078L4.21582 7.74707Z" fill="#012257"/>
</g>
<defs>
<clipPath id="clip0_926_1818">
<rect width="24" height="24" fill="white"/>
</clipPath>
</defs>
</svg>
