<svg width="24" height="24" viewBox="0 0 24 24" fill="none" xmlns="http://www.w3.org/2000/svg">
<g clip-path="url(#clip0_924_1186)">
<path d="M9.89062 21.8438C11.0556 21.8438 12 20.8994 12 19.7344C12 18.5694 11.0556 17.625 9.89062 17.625C8.72565 17.625 7.78125 18.5694 7.78125 19.7344C7.78125 20.8994 8.72565 21.8438 9.89062 21.8438Z" fill="white"/>
<path d="M18.3281 21.8438C19.4931 21.8438 20.4375 20.8994 20.4375 19.7344C20.4375 18.5694 19.4931 17.625 18.3281 17.625C17.1631 17.625 16.2188 18.5694 16.2188 19.7344C16.2188 20.8994 17.1631 21.8438 18.3281 21.8438Z" fill="white"/>
<path d="M0.703121 3.56249H3.73142C3.77056 3.70344 7.32882 16.5148 7.10349 15.7037C7.18796 16.0079 7.46536 16.2187 7.7812 16.2187H20.4374C20.7512 16.2187 21.0272 16.0106 21.1137 15.7085L23.9731 5.86479C24.0335 5.65264 23.991 5.42464 23.8584 5.2482C23.7252 5.07242 23.5172 4.96873 23.2968 4.96873H5.58119L4.94331 2.67122C4.85885 2.36705 4.58144 2.15625 4.2656 2.15625H0.703121C0.314483 2.15625 0 2.47073 0 2.85937C0 3.24801 0.314483 3.56249 0.703121 3.56249ZM17.6249 13.4062H10.5937C10.205 13.4062 9.89057 13.0917 9.89057 12.7031C9.89057 12.3144 10.205 11.9999 10.5937 11.9999H17.6249C18.0135 11.9999 18.328 12.3144 18.328 12.7031C18.328 13.0917 18.0135 13.4062 17.6249 13.4062ZM9.18745 9.18746H19.0311C19.4198 9.18746 19.7343 9.50194 19.7343 9.89058C19.7343 10.2792 19.4198 10.5937 19.0311 10.5937H9.18745C8.79881 10.5937 8.48433 10.2792 8.48433 9.89058C8.48433 9.50194 8.79881 9.18746 9.18745 9.18746Z" fill="white"/>
</g>
<defs>
<clipPath id="clip0_924_1186">
<rect width="24" height="24" fill="white"/>
</clipPath>
</defs>
</svg>
