<svg width="64" height="64" viewBox="0 0 64 64" fill="none" xmlns="http://www.w3.org/2000/svg">
<rect width="64" height="64" rx="8" fill="#F9A11B" fill-opacity="0.1"/>
<path d="M20.3332 37C18.7665 37 17.3165 37.55 16.1665 38.4667C14.6332 39.6833 13.6665 41.5667 13.6665 43.6667C13.6665 47.35 16.6498 50.3333 20.3332 50.3333C22.0165 50.3333 23.5498 49.7 24.7332 48.6667C26.1165 47.45 26.9998 45.6667 26.9998 43.6667C26.9998 39.9833 24.0165 37 20.3332 37ZM21.9998 44.0833C21.9998 44.5167 21.7665 44.9333 21.3998 45.15L19.3165 46.4C19.1165 46.5333 18.8832 46.5833 18.6665 46.5833C18.2498 46.5833 17.8332 46.3667 17.5998 45.9833C17.2498 45.3833 17.4332 44.6167 18.0332 44.2667L19.5165 43.3833V41.5833C19.4998 40.9 20.0665 40.3333 20.7498 40.3333C21.4332 40.3333 21.9998 40.9 21.9998 41.5833V44.0833Z" fill="#F9A11B"/>
<path d="M36.7498 18.5846V24.918H34.2498V18.5846C34.2498 18.1346 33.8498 17.918 33.5832 17.918C33.4998 17.918 33.4165 17.9346 33.3332 17.968L20.1165 22.9513C19.2332 23.2846 18.6665 24.118 18.6665 25.068V26.1846C17.1498 27.318 16.1665 29.1346 16.1665 31.1846V25.068C16.1665 23.0846 17.3832 21.318 19.2332 20.618L32.4665 15.618C32.8332 15.4846 33.2165 15.418 33.5832 15.418C35.2498 15.418 36.7498 16.768 36.7498 18.5846Z" fill="#F9A11B"/>
<path d="M47.8333 36.1654V37.832C47.8333 38.282 47.4833 38.6487 47.0166 38.6654H44.5833C43.7 38.6654 42.9 38.0154 42.8333 37.1487C42.7833 36.632 42.9833 36.1487 43.3166 35.8154C43.6166 35.4987 44.0333 35.332 44.4833 35.332H47C47.4833 35.3487 47.8333 35.7154 47.8333 36.1654Z" fill="#F9A11B"/>
<path d="M44.4665 33.5846H46.1665C47.0832 33.5846 47.8332 32.8346 47.8332 31.918V31.1846C47.8332 27.7346 45.0165 24.918 41.5665 24.918H22.4332C21.0165 24.918 19.7165 25.3846 18.6665 26.1846C17.1498 27.318 16.1665 29.1346 16.1665 31.1846V34.1513C16.1665 34.7846 16.8332 35.1846 17.4332 34.9846C18.3665 34.668 19.3498 34.5013 20.3332 34.5013C25.3832 34.5013 29.4998 38.618 29.4998 43.668C29.4998 44.868 29.1832 46.1846 28.6832 47.3513C28.4165 47.9513 28.8332 48.668 29.4832 48.668H41.5665C45.0165 48.668 47.8332 45.8513 47.8332 42.4013V42.0846C47.8332 41.168 47.0832 40.418 46.1665 40.418H44.7165C43.1165 40.418 41.5832 39.4346 41.1665 37.8846C40.8332 36.618 41.2332 35.3846 42.0665 34.5846C42.6832 33.9513 43.5332 33.5846 44.4665 33.5846ZM35.3332 33.2513H26.9998C26.3165 33.2513 25.7498 32.6846 25.7498 32.0013C25.7498 31.318 26.3165 30.7513 26.9998 30.7513H35.3332C36.0165 30.7513 36.5832 31.318 36.5832 32.0013C36.5832 32.6846 36.0165 33.2513 35.3332 33.2513Z" fill="#F9A11B"/>
</svg>
