<svg width="64" height="64" viewBox="0 0 64 64" fill="none" xmlns="http://www.w3.org/2000/svg">
<rect width="64" height="64" rx="8" fill="#C92B28" fill-opacity="0.1"/>
<path d="M20.3334 37C18.6334 37 17.0667 37.65 15.8834 38.7167C15.6167 38.95 15.3667 39.2 15.1501 39.4833C14.2167 40.6333 13.6667 42.0833 13.6667 43.6667C13.6667 47.35 16.6667 50.3333 20.3334 50.3333C21.9334 50.3333 23.3834 49.7667 24.5334 48.85C25.4667 48.0667 26.2001 47.05 26.6001 45.8833C26.8667 45.2 27.0001 44.45 27.0001 43.6667C27.0001 40 24.0167 37 20.3334 37ZM24.3334 42.3833C24.3334 42.85 23.9667 43.2 23.5167 43.2C23.0667 43.2 22.7001 42.85 22.7001 42.3833V42.2167C22.7001 42.0333 22.5667 41.8833 22.3834 41.8833H19.0501C19.2167 42.2 19.1834 42.5833 18.9167 42.85C18.7667 43 18.5667 43.0833 18.3334 43.0833C18.1334 43.0833 17.9167 43 17.7667 42.85L16.5667 41.65C16.5001 41.5833 16.4334 41.4833 16.3834 41.3833C16.3167 41.1833 16.3167 40.9667 16.3834 40.7667C16.4334 40.6833 16.4834 40.5667 16.5667 40.5L17.7667 39.3167C18.0834 38.9833 18.6001 38.9833 18.9001 39.3167C19.1667 39.5667 19.2001 39.9667 19.0334 40.2667H22.3834C23.4501 40.2667 24.3167 41.1333 24.3167 42.2167V42.3833H24.3334ZM22.3334 48.2667C22.1167 48.2667 21.9001 48.2 21.7501 48.0333C21.4834 47.7833 21.4501 47.3833 21.6167 47.0833H18.2667C17.2001 47.0833 16.3334 46.2167 16.3334 45.1333V44.9667C16.3334 44.5 16.7001 44.15 17.1501 44.15C17.6001 44.15 17.9667 44.5 17.9667 44.9667V45.1333C17.9667 45.3167 18.1001 45.4667 18.2834 45.4667H21.6334C21.4667 45.15 21.5001 44.7667 21.7667 44.5C22.0834 44.1833 22.6001 44.1833 22.9001 44.5L24.1001 45.7C24.1667 45.7667 24.2334 45.8667 24.2834 45.9667C24.3501 46.1667 24.3501 46.3833 24.2834 46.5833C24.2334 46.6667 24.1667 46.7667 24.1001 46.8333L22.9001 48.0167C22.7501 48.1833 22.5334 48.2667 22.3334 48.2667Z" fill="#C92B28"/>
<path d="M36.7501 18.5846V24.918H34.2501V18.5846C34.2501 18.1346 33.8501 17.918 33.5834 17.918C33.5001 17.918 33.4167 17.9346 33.3334 17.968L20.1167 22.9513C19.2334 23.2846 18.6667 24.118 18.6667 25.068V26.1846C17.1501 27.318 16.1667 29.1346 16.1667 31.1846V25.068C16.1667 23.0846 17.3834 21.318 19.2334 20.618L32.4667 15.618C32.8334 15.4846 33.2167 15.418 33.5834 15.418C35.2501 15.418 36.7501 16.768 36.7501 18.5846Z" fill="#C92B28"/>
<path d="M47.8333 36.1654V37.832C47.8333 38.282 47.4833 38.6487 47.0166 38.6654H44.5833C43.7 38.6654 42.9 38.0154 42.8333 37.1487C42.7833 36.632 42.9833 36.1487 43.3166 35.8154C43.6166 35.4987 44.0333 35.332 44.4833 35.332H47C47.4833 35.3487 47.8333 35.7154 47.8333 36.1654Z" fill="#C92B28"/>
<path d="M44.4667 33.5846H46.1667C47.0834 33.5846 47.8334 32.8346 47.8334 31.918V31.1846C47.8334 27.7346 45.0167 24.918 41.5667 24.918H22.4334C21.0167 24.918 19.7167 25.3846 18.6667 26.1846C17.1501 27.318 16.1667 29.1346 16.1667 31.1846V34.1513C16.1667 34.7846 16.8334 35.1846 17.4334 34.9846C18.3667 34.668 19.3501 34.5013 20.3334 34.5013C25.3834 34.5013 29.5001 38.618 29.5001 43.668C29.5001 44.868 29.1834 46.1846 28.6834 47.3513C28.4167 47.9513 28.8334 48.668 29.4834 48.668H41.5667C45.0167 48.668 47.8334 45.8513 47.8334 42.4013V42.0846C47.8334 41.168 47.0834 40.418 46.1667 40.418H44.7167C43.1167 40.418 41.5834 39.4346 41.1667 37.8846C40.8334 36.618 41.2334 35.3846 42.0667 34.5846C42.6834 33.9513 43.5334 33.5846 44.4667 33.5846ZM35.3334 33.2513H27.0001C26.3167 33.2513 25.7501 32.6846 25.7501 32.0013C25.7501 31.318 26.3167 30.7513 27.0001 30.7513H35.3334C36.0167 30.7513 36.5834 31.318 36.5834 32.0013C36.5834 32.6846 36.0167 33.2513 35.3334 33.2513Z" fill="#C92B28"/>
</svg>
