<svg width="64" height="64" viewBox="0 0 64 64" fill="none" xmlns="http://www.w3.org/2000/svg">
<rect width="64" height="64" rx="8" fill="#E6F6FC"/>
<path d="M20.3332 37C18.7665 37 17.3165 37.55 16.1665 38.4667C14.6332 39.6833 13.6665 41.5667 13.6665 43.6667C13.6665 47.35 16.6498 50.3333 20.3332 50.3333C22.0165 50.3333 23.5498 49.7 24.7332 48.6667C26.1165 47.45 26.9998 45.6667 26.9998 43.6667C26.9998 39.9833 24.0165 37 20.3332 37ZM21.9998 44.0833C21.9998 44.5167 21.7665 44.9333 21.3998 45.15L19.3165 46.4C19.1165 46.5333 18.8832 46.5833 18.6665 46.5833C18.2498 46.5833 17.8332 46.3667 17.5998 45.9833C17.2498 45.3833 17.4332 44.6167 18.0332 44.2667L19.5165 43.3833V41.5833C19.4998 40.9 20.0665 40.3333 20.7498 40.3333C21.4332 40.3333 21.9998 40.9 21.9998 41.5833V44.0833Z" fill="#05A5E1"/>
<path d="M36.7498 18.5837V24.917H34.2498V18.5837C34.2498 18.1337 33.8498 17.917 33.5832 17.917C33.4998 17.917 33.4165 17.9337 33.3332 17.967L20.1165 22.9503C19.2332 23.2837 18.6665 24.117 18.6665 25.067V26.1837C17.1498 27.317 16.1665 29.1337 16.1665 31.1837V25.067C16.1665 23.0837 17.3832 21.317 19.2332 20.617L32.4665 15.617C32.8332 15.4837 33.2165 15.417 33.5832 15.417C35.2498 15.417 36.7498 16.767 36.7498 18.5837Z" fill="#05A5E1"/>
<path d="M47.8333 36.1663V37.833C47.8333 38.283 47.4833 38.6497 47.0166 38.6663H44.5833C43.7 38.6663 42.9 38.0163 42.8333 37.1497C42.7833 36.633 42.9833 36.1497 43.3166 35.8163C43.6166 35.4997 44.0333 35.333 44.4833 35.333H47C47.4833 35.3497 47.8333 35.7163 47.8333 36.1663Z" fill="#05A5E1"/>
<path d="M44.4665 33.5837H46.1665C47.0832 33.5837 47.8332 32.8337 47.8332 31.917V31.1837C47.8332 27.7337 45.0165 24.917 41.5665 24.917H22.4332C21.0165 24.917 19.7165 25.3837 18.6665 26.1837C17.1498 27.317 16.1665 29.1337 16.1665 31.1837V34.1503C16.1665 34.7837 16.8332 35.1837 17.4332 34.9837C18.3665 34.667 19.3498 34.5003 20.3332 34.5003C25.3832 34.5003 29.4998 38.617 29.4998 43.667C29.4998 44.867 29.1832 46.1837 28.6832 47.3503C28.4165 47.9503 28.8332 48.667 29.4832 48.667H41.5665C45.0165 48.667 47.8332 45.8503 47.8332 42.4003V42.0837C47.8332 41.167 47.0832 40.417 46.1665 40.417H44.7165C43.1165 40.417 41.5832 39.4337 41.1665 37.8837C40.8332 36.617 41.2332 35.3837 42.0665 34.5837C42.6832 33.9503 43.5332 33.5837 44.4665 33.5837ZM35.3332 33.2503H26.9998C26.3165 33.2503 25.7498 32.6837 25.7498 32.0003C25.7498 31.317 26.3165 30.7503 26.9998 30.7503H35.3332C36.0165 30.7503 36.5832 31.317 36.5832 32.0003C36.5832 32.6837 36.0165 33.2503 35.3332 33.2503Z" fill="#05A5E1"/>
</svg>
