<svg id="Capa_1" enable-background="new 0 0 512 512" height="512" viewBox="0 0 512 512" width="512" xmlns="http://www.w3.org/2000/svg"><g><g><path d="m381.213 100-91.213-91.216v91.216z"/></g><g><path d="m242 276c0-8.284 6.716-15 15-15h133v-131h-115c-8.284 0-15-6.716-15-15v-115h-205c-30.327 0-55 24.673-55 55v402c0 30.327 24.673 55 55 55h280c30.327 0 55-24.673 55-55v-166h-133c-8.284 0-15-6.716-15-15zm-167-105h170c8.284 0 15 6.716 15 15s-6.716 15-15 15h-170c-8.284 0-15-6.716-15-15s6.716-15 15-15zm0 60h130c8.284 0 15 6.716 15 15s-6.716 15-15 15h-130c-8.284 0-15-6.716-15-15s6.716-15 15-15zm0 60h130c8.284 0 15 6.716 15 15s-6.716 15-15 15h-130c-8.284 0-15-6.716-15-15s6.716-15 15-15zm170 90h-170c-8.284 0-15-6.716-15-15s6.716-15 15-15h170c8.284 0 15 6.716 15 15s-6.716 15-15 15z"/><path d="m507.606 265.394-60-60c-5.857-5.858-15.355-5.858-21.213 0s-5.858 15.355 0 21.213l34.394 34.393h-70.787v30h70.787l-34.394 34.394c-5.858 5.858-5.858 15.355 0 21.213 2.929 2.929 6.768 4.393 10.607 4.393s7.678-1.464 10.606-4.394l60-60c5.859-5.857 5.859-15.354 0-21.212z"/></g></g></svg>