<?xml version="1.0"?>
<svg xmlns="http://www.w3.org/2000/svg" id="Layer_1" data-name="Layer 1" viewBox="0 0 512 512" width="512" height="512"><title>bp checking monitor</title><path d="M424.486,242.647a6,6,0,0,1-5.537-4.232l-7.4-24.041-12.222,40.547a6,6,0,0,1-11.625-.536l-17.208-84.679L354.3,299.365a6,6,0,0,1-5.765,5.254c-.064,0-.127,0-.191,0a6,6,0,0,1-5.893-4.885L322.18,192.594l-11.357,46.95a6,6,0,0,1-11.23,1.208L287.1,215H227.578a6,6,0,0,1-5.654-3.992l-5.81-16.359L208.356,218.7a6,6,0,0,1-11.454-.107L185.883,182.1l-19.767,97.44a6,6,0,0,1-11.834-.448l-15.968-127.51-18.362,97.693a6,6,0,0,1-11.721.334L94.592,194.56l-7.077,16.577A6.242,6.242,0,0,1,82.01,215H82l-39-.575v99.639A42.985,42.985,0,0,0,85.936,357H426.065A42.984,42.984,0,0,0,469,314.064V215.587l-29.864.019-8.847,23.184A6.042,6.042,0,0,1,424.486,242.647Z"/><rect x="358" y="400" width="27" height="18"/><rect x="152" y="391" width="138" height="32" rx="9"/><rect x="419" y="400" width="25" height="18"/><path d="M469,112.936A42.984,42.984,0,0,0,426.065,70H85.936A42.985,42.985,0,0,0,43,112.936v89.489l35.074.067L90.643,173.5a6,6,0,0,1,11.328.944L113.25,219.97,133.6,111.676a6,6,0,0,1,11.85.363L161.638,241.26l17.221-84.893a6,6,0,0,1,11.624-.541l12.351,40.9,7.3-22.618a6,6,0,0,1,5.623-4.157,5.921,5.921,0,0,1,5.742,3.991L231.815,203h59.04a6,6,0,0,1,5.4,3.381l6.838,14.091L317.065,162.7a6,6,0,0,1,11.728.3l18.338,96.937,16-128.054a6,6,0,0,1,11.833-.451l19.757,97.216,11.029-36.48a5.894,5.894,0,0,1,5.727-4.16h.018a5.9,5.9,0,0,1,5.734,4.127l8.068,26.156,4.1-10.785a6.015,6.015,0,0,1,5.6-3.875l34-.036Z"/><circle cx="78.5" cy="404.94" r="11.5"/><path d="M461.532,369H434a5.968,5.968,0,0,1-1.954-.332,55.215,55.215,0,0,1-5.981.332H85.936a55.27,55.27,0,0,1-6.724-.426A5.978,5.978,0,0,1,77,369H50.468C40.112,369,32,376.893,32,386.968v37.064C32,434.314,40.458,443,50.468,443H461.532C471.543,443,480,434.314,480,424.032V386.968C480,376.893,471.888,369,461.532,369ZM78.5,428.44a23.5,23.5,0,1,1,23.5-23.5A23.527,23.527,0,0,1,78.5,428.44ZM302,414a21.024,21.024,0,0,1-21,21H161a21.024,21.024,0,0,1-21-21V400a21.024,21.024,0,0,1,21-21H281a21.024,21.024,0,0,1,21,21Zm95,10a6,6,0,0,1-6,6H352a6,6,0,0,1-6-6V394a6,6,0,0,1,6-6h39a6,6,0,0,1,6,6Zm59,0a6,6,0,0,1-6,6H413a6,6,0,0,1-6-6V394a6,6,0,0,1,6-6h37a6,6,0,0,1,6,6Z"/></svg>
