<?xml version="1.0" encoding="utf-8"?>
<!-- Generator: Adobe Illustrator 25.2.1, SVG Export Plug-In . SVG Version: 6.00 Build 0)  -->
<svg version="1.1" id="_x5F_" xmlns="http://www.w3.org/2000/svg" xmlns:xlink="http://www.w3.org/1999/xlink" x="0px" y="0px"
	 viewBox="0 0 500 450" style="enable-background:new 0 0 500 450;" xml:space="preserve">
<style type="text/css">
	.st0{fill:url(#background_2_);}
	.st1{fill:#F7B48E;}
	.st2{fill:#E0A181;}
	.st3{fill:#1677A4;}
	.st4{fill:#D3FFFF;}
	.st5{fill:#1B7E80;}
	.st6{fill:#31A78C;}
	.st7{fill:#CCC9CC;}
	.st8{fill:#ACACAE;}
	.st9{fill:#FECF51;}
	.st10{fill:#FFFFFF;}
	.st11{fill:#5FE6EF;}
	.st12{fill:#F95C68;}
	.st13{fill:#FFB860;}
	.st14{fill:#DB914F;}
	.st15{fill:#E2E2E2;}
	.st16{fill:#5B595E;}
	.st17{fill:#F2662F;}
	.st18{fill:#582011;}
	.st19{fill:#5BB9CC;}
	.st20{fill:#E37E4C;}
	.st21{opacity:0.3;fill:#5B4D56;}
	.st22{fill:#FF9B95;}
	.st23{fill:#F17A79;}
	.st24{fill:#D65A68;}
	.st25{fill:#FFC79B;}
	.st26{fill:#31BE9D;}
	.st27{fill:#34A7C7;}
</style>
<linearGradient id="background_2_" gradientUnits="userSpaceOnUse" x1="269.3181" y1="70.455" x2="223.9276" y2="433.5797">
	<stop  offset="0" style="stop-color:#CCFFFF"/>
	<stop  offset="1" style="stop-color:#B8E0FE"/>
</linearGradient>
<rect id="background_1_" class="st0" width="500" height="450"/>
<g>
	<g>
		<path class="st1" d="M184.2,363.92c-2.84-0.9-4.9-3.55-4.94-6.69c-0.04-3.92,3.1-7.13,7.02-7.17l15.66-0.17l0.92-1.16
			l-21.77-14.49c-3.26-2.17-4.15-6.57-1.97-9.84c2.17-3.26,11.64,11.03,14.9,13.19l23.12,3.59c1.65,1.1,2.77,2.84,3.08,4.8
			c0.31,1.96-0.22,3.96-1.45,5.51l-7.81,9.85c-1.33,1.68-3.34,2.66-5.48,2.68l-19.04,0.2C185.65,364.26,184.9,364.15,184.2,363.92z"
			/>
	</g>
	<g>
		<path class="st1" d="M174.01,371.24c-2.78-0.89-4.84-3.45-4.94-6.54c-0.12-3.92,2.95-7.19,6.87-7.31l17.81-0.61l-22.85-15.21
			c-3.26-2.17-4.15-6.57-1.98-9.84c2.17-3.26,6.57-4.14,9.83-1.98l28.19,18.76c3.03,2.02,4.04,6,2.34,9.22l-4.95,9.36
			c-1.19,2.25-3.5,3.69-6.05,3.77l-21.91,0.69C175.56,371.59,174.76,371.47,174.01,371.24z"/>
	</g>
	<path class="st2" d="M70.73,326.23l15.53-44.22l69.9,23.5c2.24,15.26-4.72,29.87-15.53,44.22L70.73,326.23z"/>
	<path class="st2" d="M123.89,344.1c-6.65-28.2,4.29-36.86,23.51-47.88c25.33,14.37,45.05,26.06,57.61,46.18
		c2.11,7.94-15.55,21.84-24.96,29.99c-2.07,1.8-5.02,2.16-7.44,0.87L123.89,344.1z"/>
	<path class="st2" d="M81.71,329.92l15.53-44.22l34.39,11.56c2.24,15.26-4.72,29.87-15.53,44.22L81.71,329.92z"/>
	<path class="st3" d="M39.21,321.64l19.07-55.56l69.78,23.95c1.22,18.52-6.9,36.9-19.07,55.56L39.21,321.64z"/>
	<path class="st4" d="M0,240.33v81.87l88.26,29.55c14.09-24.26,24.13-48.24,24.56-71.57L0,240.33z"/>
	<g>
		<g>
			<path class="st2" d="M216.13,337.93l23.27-0.3c0.93,0.69,1.17,3.36,0.12,5.64l-13.64,6.03c-3.03,0.87-5.57,2.35-9.94,2.53
				l-26.96-0.15c-0.28-0.05-0.54-0.12-0.81-0.21c-3.38-1.08-5.5-4.54-4.8-8.11c0.75-3.85,6.84-11.23,10.69-10.48L216.13,337.93z"/>
		</g>
	</g>
	<g>
		<path class="st2" d="M220.36,329.08c-3.08,0.75-6.45,0.72-9.31,0.22c-6.01-1.05-11.5-3.98-17.04-6.54c-3.83-1.77-7.81-3.4-12-4.08
			c-4.5-0.74-9.15-0.22-13.71-0.76c-3.9-0.46-6.88-1.66-10.98-0.94l-0.93,0.09c-6.49,0.65-12.33-4.12-13.05-10.66
			c-1.13-10.29,7.13-11.84,15.19-14.14c7.66-2.18,16.66-3.15,23.38,1.12c6.67,4.24,14.54,13.65,20.99,17.86
			c5.48,3.57,10.89,6.09,17.62,8.36c4.13,1.4,10.03,2.45,5.95,6.32C224.82,327.52,222.67,328.52,220.36,329.08z"/>
		<path class="st2" d="M221.39,328.8c-2.81,0.86-6.8,1.12-10.33,0.5c-6.01-1.05-11.5-3.98-17.04-6.54c-5.87-2.71-8.3-3.23-8.3-3.23
			s-11.36-13.56-4.87-11.34c6.48,2.22,9.86,4.59,15.62,8.32c5.43,3.52,11.18,6.55,17.15,9.05c4.26,1.78,8.53,3.63,12.27,0.92
			C224.17,327.64,223.51,328.15,221.39,328.8z"/>
	</g>
	<path class="st1" d="M224.15,320.97c-3.41-1.59-20.35-9.04-24.07-11.89c-5.94-4.54-8.89-11.64-15.23-15.81
		c-6.01-3.95-17.51-4.41-24.02-1.94c-19.83,7.5-29.71,6.19-29.71,6.19s5.95,5.1,19.64,1.87c8.83-2.08,21.71-6.49,29.98-1.47
		c6.99,4.25,11.26,11.47,18.33,15.72c6.36,3.83,17.16,8.1,24.65,8.22C224.23,321.88,224.76,321.26,224.15,320.97z"/>
</g>
<g>
	<g>
		<g>
			<g>
				<path class="st2" d="M379.26,315.86c3.21-1.59,4.74-4.81,3.67-7.82c-1.29-3.61-5.59-5.63-9.81-4.72
					c-19.82,3.09-39.05,1.68-58.66-2c-4.51-0.76-8.58,1.49-8.97,5.32c-0.39,3.83,3.32,7.82,8.19,8.59
					c21.6,3.76,41.74,4.24,63.47,1.36C377.91,316.43,378.62,316.18,379.26,315.86z"/>
			</g>
			<g>
				<path class="st2" d="M384.73,332.63c3.31-1.49,4.95-4.49,3.92-7.28c-1.24-3.35-5.66-5.2-10.02-4.34
					c-19.02,2.26-36.73,2.08-55.72-0.45c-4.58-0.59-8.48,1.62-8.63,5.2c-0.15,3.58,3.76,7.18,8.65,7.76
					c20.01,2.54,39.65,3.11,59.63-0.2C383.35,333.16,384.07,332.92,384.73,332.63z"/>
			</g>
			<g>
				<path class="st2" d="M408.09,343.01c3.21-1.64,4.77-4.55,3.68-7.04c-1.31-2.99-5.77-4.32-10.07-3.17
					c-15.57,2.99-30.4,4.46-46.26,4.59c-4.49,0.06-7.96,2.58-7.69,5.83c0.27,3.26,4.4,6,9.16,5.9c16.5,0.27,33.02-1.51,49.08-5.31
					C406.74,343.62,407.45,343.34,408.09,343.01z"/>
			</g>
			<g>
				<path class="st2" d="M367.75,299.33c3.56-1.06,5.58-4.47,4.77-7.86c-0.88-3.7-4.52-6.04-8.31-5.44
					c-15.08,1.76-28.83,1.69-43.91-0.07c-4.06-0.65-7.91,1.65-8.47,5.42c-0.56,3.78,2.65,7.64,7.07,8.33
					c15.83,2.45,32.03,2.43,47.85-0.15C367.1,299.5,367.43,299.43,367.75,299.33z"/>
			</g>
		</g>
	</g>
	<path class="st1" d="M352.65,266.27c0,0,0.19,0.18,0.55,0.53c0.09,0.09,0.19,0.18,0.3,0.29c0.06,0.06,0.1,0.1,0.19,0.18
		c0.11,0.09,0.22,0.18,0.34,0.27c0.47,0.37,1.04,0.81,1.65,1.24c0.52,0.33,1.09,0.7,1.72,1.1c0.61,0.34,1.28,0.72,1.99,1.09
		c1.39,0.7,2.96,1.42,4.62,2.07c6.64,2.66,15.02,4.77,22.91,7.13c1.97,0.59,3.91,1.18,5.76,1.81c1.87,0.61,3.63,1.26,5.3,1.9
		c1.64,0.66,3.2,1.31,4.56,1.99c0.7,0.33,1.34,0.66,1.93,0.99c0.62,0.32,1.15,0.66,1.67,0.97c1.03,0.63,1.85,1.24,2.52,1.77
		c0.64,0.54,1.16,1,1.49,1.39c0.38,0.37,0.58,0.67,0.73,0.86c0.15,0.19,0.23,0.29,0.23,0.29l0.1,0.13
		c3.96,4.89,11.14,5.65,16.03,1.69c4.89-3.96,5.65-11.14,1.69-16.03c-0.33-0.41-0.74-0.84-1.12-1.19c0,0-0.29-0.27-0.84-0.78
		c-0.55-0.51-1.36-1.26-2.42-2.04c-1.06-0.84-2.35-1.69-3.84-2.59c-1.49-0.87-3.16-1.74-4.96-2.52c-0.9-0.38-1.84-0.8-2.79-1.13
		c-0.96-0.37-1.94-0.72-2.94-1.03c-2.01-0.67-4.08-1.22-6.2-1.75c-2.11-0.5-4.28-0.98-6.44-1.38c-2.17-0.41-4.33-0.77-6.48-1.11
		c-4.18-0.62-8.35-1.25-12.27-1.84c-1.91-0.29-3.69-0.6-5.37-0.9c-1.64-0.32-3.2-0.63-4.52-0.97c-1.36-0.32-2.48-0.68-3.45-1
		c-0.45-0.17-0.87-0.32-1.26-0.47c-0.34-0.15-0.65-0.29-0.93-0.41c-0.16-0.08-0.26-0.11-0.39-0.15l-0.09-0.02
		c-0.04-0.02-0.12-0.09-0.18-0.13c-0.12-0.09-0.23-0.17-0.33-0.25c-0.4-0.29-0.61-0.45-0.61-0.45l-0.02-0.02
		c-3.06-2.25-7.36-1.59-9.61,1.47C349.82,260.05,350.2,263.91,352.65,266.27z"/>
	<path class="st2" d="M496.48,333.81l-5.3-51.41l-70.98,7.31c-5.34,15.79-1.87,33.25,5.3,51.41L496.48,333.81z"/>
	<path class="st2" d="M442.89,328.56c4.32-18.28-0.46-34.44-12.68-48.85c-28.38-0.73-52.42,1.45-70.98,7.31
		c-7.73,10.8,12.11,40.53,28.14,60.19l35.3-0.97C432.48,345.23,440.63,338.15,442.89,328.56z"/>
	<path class="st2" d="M485.33,334.96l-5.3-51.41l-34.92,3.6c-5.34,15.79-1.87,33.25,5.3,51.41L485.33,334.96z"/>
	<path class="st5" d="M500,279.09l-49.77,5.13c-5.2,17.19-1.56,36.28,5.82,56.52L500,336.2V279.09z"/>
	<path class="st6" d="M500,270.68l-13.75,1.42c-10.33,1.06-18.24,9.7-18.36,20.08c-0.13,11.89,1.67,24.37,4.74,37.24
		c2.36,9.88,11.61,16.55,21.72,15.64l5.65-0.51V270.68z"/>
	<path class="st2" d="M353.68,267.26c0.11,0.09,0.22,0.18,0.34,0.27c0.47,0.37,1.04,0.81,1.65,1.24c0.52,0.33,1.09,0.7,1.72,1.1
		c0.61,0.34,1.28,0.72,1.99,1.09c1.39,0.7,2.96,1.42,4.62,2.07c6.64,2.66,17.41,5.63,25.3,7.99c0.17,0.05,13.81-1.42,21.53-0.36
		c-0.32-0.35-10.53-4.35-15.36-5.36c-6.68-1.4-13.36-2.1-20.13-2.89c-7.52-0.88-15.34-2.26-22.09-5.56
		c0.08,0.07,0.16,0.15,0.25,0.24C353.56,267.14,353.59,267.18,353.68,267.26z"/>
	<path class="st1" d="M402.55,267.79c-1,0-1.93,1.25-0.79,1.81c6.92,3.39,14.31,4.96,20.93,9.13c6.49,4.09,11.41,10.99,12.93,18.49
		c0.12,0.6,1.21,0.27,1.27-0.23C439.27,278.53,418.4,267.81,402.55,267.79z"/>
</g>
<g>
	<g>
		<g>
			<path class="st7" d="M306.81,78.23l-57.48,89.92c-2.36,3.7-1.28,8.61,2.42,10.98l33.41,21.35c3.7,2.36,8.61,1.28,10.98-2.42
				l57.48-89.92c2.36-3.7,1.28-8.61-2.42-10.98l-33.41-21.35C314.09,73.44,309.17,74.53,306.81,78.23z"/>
			<g>
				<path class="st8" d="M273.15,182.45c-0.73-0.46-0.94-1.43-0.47-2.15l54.96-85.99c0.46-0.73,1.43-0.94,2.15-0.47
					c0.73,0.46,0.94,1.43,0.47,2.15l-54.96,85.99C274.84,182.7,273.88,182.92,273.15,182.45z"/>
			</g>
			<g>
				<g>
					<path class="st8" d="M284.48,190.8c-1.38-0.88-2.38-2.31-2.73-3.91c-0.35-1.61-0.05-3.33,0.83-4.71
						c0.89-1.38,2.32-2.38,3.92-2.73c1.6-0.35,3.32-0.05,4.7,0.84c1.38,0.88,2.38,2.31,2.73,3.91c0.35,1.6,0.05,3.32-0.84,4.7
						c-0.89,1.38-2.31,2.39-3.92,2.74C287.57,192,285.86,191.69,284.48,190.8z"/>
				</g>
				<g>
					<path class="st8" d="M295.31,162.27c1.86-2.91,5.72-3.75,8.62-1.9l0,0c2.9,1.86,3.75,5.71,1.89,8.62l0,0
						c-1.85,2.9-5.71,3.75-8.61,1.9l0,0C294.31,169.03,293.46,165.16,295.31,162.27z M308.04,142.34c1.86-2.9,5.72-3.75,8.62-1.89
						l0,0c2.9,1.86,3.75,5.71,1.9,8.61l0,0c-1.86,2.9-5.71,3.76-8.62,1.9l0,0C307.04,149.11,306.19,145.24,308.04,142.34z
						 M320.78,122.42c1.86-2.9,5.72-3.75,8.62-1.89l0,0c2.9,1.86,3.75,5.71,1.9,8.61l0,0c-1.86,2.9-5.71,3.76-8.62,1.9l0,0
						C319.77,129.19,318.92,125.32,320.78,122.42z"/>
				</g>
				<g>
					<path class="st8" d="M335.41,111.12c-1.38-0.89-2.38-2.31-2.73-3.91c-0.35-1.6-0.05-3.33,0.83-4.71
						c0.89-1.38,2.32-2.38,3.92-2.73c1.6-0.35,3.32-0.05,4.7,0.84c1.38,0.89,2.38,2.31,2.73,3.91c0.35,1.6,0.04,3.32-0.84,4.7
						c-0.89,1.38-2.31,2.38-3.92,2.74C338.5,112.31,336.79,112.01,335.41,111.12z"/>
				</g>
			</g>
			<g>
				<g>
					<path class="st8" d="M260.99,175.79c-1.38-0.88-2.38-2.31-2.73-3.91c-0.35-1.6-0.04-3.32,0.84-4.71
						c0.89-1.38,2.31-2.38,3.91-2.73c1.6-0.35,3.32-0.05,4.7,0.84c1.38,0.89,2.38,2.31,2.73,3.91c0.35,1.6,0.05,3.32-0.83,4.7
						c-0.89,1.38-2.32,2.38-3.92,2.74C264.09,176.98,262.37,176.68,260.99,175.79z"/>
				</g>
				<g>
					<path class="st8" d="M271.82,147.26c1.86-2.91,5.71-3.76,8.62-1.9l0,0c2.9,1.86,3.76,5.71,1.9,8.62l0,0
						c-1.85,2.9-5.72,3.75-8.62,1.89l0,0C270.82,154.01,269.97,150.15,271.82,147.26z M284.56,127.33c1.86-2.9,5.71-3.75,8.61-1.9
						l0,0c2.9,1.86,3.76,5.71,1.9,8.62l0,0c-1.86,2.9-5.72,3.76-8.62,1.9l0,0C283.55,134.09,282.7,130.23,284.56,127.33z
						 M297.29,107.41c1.86-2.9,5.71-3.75,8.61-1.9l0,0c2.9,1.86,3.76,5.71,1.9,8.62l0,0c-1.86,2.9-5.72,3.76-8.62,1.9l0,0
						C296.28,114.17,295.44,110.31,297.29,107.41z"/>
				</g>
				<g>
					<path class="st8" d="M311.92,96.11c-1.38-0.88-2.38-2.31-2.73-3.91c-0.35-1.6-0.04-3.32,0.84-4.7
						c0.89-1.38,2.31-2.39,3.92-2.74c1.6-0.35,3.32-0.05,4.7,0.84c1.38,0.89,2.38,2.31,2.73,3.91c0.35,1.6,0.05,3.33-0.83,4.71
						c-0.88,1.38-2.32,2.38-3.92,2.73C315.02,97.3,313.3,97,311.92,96.11z"/>
				</g>
			</g>
			<g>
				<g>
					<path class="st9" d="M285.82,188.7c-0.83-0.53-1.43-1.39-1.64-2.35c-0.21-0.96-0.03-1.99,0.5-2.82
						c0.53-0.83,1.39-1.43,2.35-1.64c0.97-0.21,1.99-0.03,2.82,0.5c0.83,0.53,1.43,1.38,1.64,2.35c0.22,0.96,0.04,1.99-0.49,2.82
						c-0.53,0.83-1.39,1.43-2.36,1.64C287.68,189.41,286.65,189.23,285.82,188.7z"/>
				</g>
				<g>
					<path class="st9" d="M297.42,163.61c1.11-1.74,3.43-2.25,5.17-1.13l0,0c1.74,1.11,2.26,3.43,1.14,5.17l0,0
						c-1.11,1.74-3.43,2.25-5.17,1.14l0,0C296.81,167.67,296.3,165.35,297.42,163.61z M310.15,143.69c1.11-1.74,3.43-2.25,5.17-1.13
						l0,0c1.74,1.11,2.26,3.43,1.14,5.17l0,0c-1.12,1.75-3.43,2.25-5.17,1.14l0,0C309.55,147.75,309.03,145.43,310.15,143.69z
						 M322.88,123.76c1.11-1.74,3.43-2.25,5.17-1.13l0,0c1.74,1.11,2.26,3.43,1.14,5.17l0,0c-1.12,1.75-3.43,2.25-5.17,1.14l0,0
						C322.28,127.83,321.76,125.51,322.88,123.76z"/>
				</g>
				<g>
					<path class="st9" d="M336.75,109.02c-0.83-0.53-1.43-1.39-1.64-2.35c-0.21-0.96-0.03-1.99,0.5-2.82
						c0.53-0.84,1.39-1.43,2.35-1.64c0.97-0.21,1.99-0.03,2.82,0.5c0.83,0.53,1.43,1.38,1.64,2.35c0.22,0.96,0.04,1.99-0.5,2.83
						c-0.53,0.82-1.39,1.43-2.35,1.63C338.61,109.73,337.58,109.55,336.75,109.02z"/>
				</g>
			</g>
			<g>
				<g>
					<path class="st9" d="M262.33,173.69c-0.83-0.53-1.43-1.39-1.64-2.35c-0.21-0.97-0.03-2,0.5-2.83c0.53-0.83,1.39-1.43,2.35-1.63
						c0.96-0.22,1.99-0.03,2.82,0.5c0.83,0.53,1.43,1.38,1.64,2.35c0.21,0.96,0.03,1.99-0.5,2.82c-0.53,0.83-1.39,1.43-2.35,1.64
						C264.19,174.4,263.16,174.22,262.33,173.69z"/>
				</g>
				<g>
					<path class="st9" d="M273.93,148.59c1.11-1.74,3.43-2.25,5.17-1.13l0,0c1.74,1.11,2.26,3.43,1.14,5.17l0,0
						c-1.11,1.74-3.43,2.25-5.17,1.14l0,0C273.33,152.65,272.81,150.33,273.93,148.59z M286.66,128.67
						c1.11-1.74,3.43-2.25,5.17-1.13l0,0c1.74,1.11,2.26,3.43,1.14,5.17l0,0c-1.12,1.75-3.43,2.25-5.17,1.14l0,0
						C286.06,132.73,285.54,130.42,286.66,128.67z M299.39,108.75c1.11-1.74,3.43-2.25,5.17-1.13l0,0c1.74,1.11,2.26,3.43,1.14,5.17
						l0,0c-1.12,1.75-3.43,2.25-5.18,1.14l0,0C298.79,112.81,298.28,110.5,299.39,108.75z"/>
				</g>
				<g>
					<path class="st9" d="M313.26,94.01c-0.83-0.53-1.43-1.39-1.64-2.35c-0.21-0.97-0.03-2,0.49-2.82c0.53-0.83,1.39-1.43,2.36-1.64
						c0.96-0.21,1.99-0.03,2.82,0.5c0.83,0.53,1.43,1.39,1.64,2.35c0.21,0.96,0.03,1.99-0.5,2.82c-0.53,0.82-1.39,1.43-2.35,1.64
						C315.12,94.72,314.09,94.54,313.26,94.01z"/>
				</g>
			</g>
			<g>
				<g>
					<path class="st10" d="M289.92,185.76c-0.34-0.22-0.59-0.58-0.69-0.98c-0.09-0.4-0.01-0.83,0.21-1.17
						c0.22-0.35,0.58-0.6,0.98-0.69c0.8-0.17,1.68,0.39,1.86,1.19c0.09,0.4,0.01,0.84-0.21,1.18c-0.22,0.34-0.58,0.59-0.98,0.68
						C290.7,186.06,290.26,185.98,289.92,185.76z"/>
				</g>
				<g>
					<path class="st10" d="M302.18,163.69c0.46-0.73,1.43-0.94,2.15-0.48l0,0c0.73,0.46,0.94,1.43,0.48,2.16l0,0
						c-0.46,0.73-1.43,0.93-2.15,0.47l0,0C301.93,165.38,301.72,164.42,302.18,163.69z M314.91,143.77
						c0.46-0.73,1.43-0.94,2.15-0.48l0,0c0.73,0.46,0.94,1.43,0.48,2.16l0,0c-0.46,0.73-1.43,0.93-2.15,0.47l0,0
						C314.66,145.46,314.45,144.5,314.91,143.77z M327.64,123.85c0.46-0.73,1.43-0.94,2.15-0.48l0,0c0.73,0.46,0.94,1.43,0.48,2.16
						l0,0c-0.46,0.73-1.43,0.93-2.15,0.47l0,0C327.39,125.54,327.18,124.58,327.64,123.85z"/>
				</g>
				<g>
					<path class="st10" d="M340.85,106.08c-0.34-0.22-0.6-0.57-0.69-0.98c-0.09-0.4-0.01-0.83,0.21-1.17
						c0.22-0.35,0.58-0.6,0.98-0.69c0.81-0.18,1.68,0.38,1.86,1.19c0.09,0.4,0.02,0.83-0.21,1.18c-0.22,0.34-0.58,0.59-0.98,0.68
						C341.62,106.38,341.19,106.3,340.85,106.08z"/>
				</g>
			</g>
			<g>
				<g>
					<path class="st10" d="M266.43,170.75c-0.34-0.22-0.59-0.58-0.69-0.98c-0.08-0.4-0.01-0.83,0.21-1.17
						c0.22-0.34,0.58-0.6,0.98-0.69c0.8-0.17,1.68,0.39,1.86,1.19c0.09,0.4,0.01,0.83-0.21,1.18c-0.22,0.34-0.58,0.59-0.98,0.68
						C267.21,171.05,266.78,170.97,266.43,170.75z"/>
				</g>
				<g>
					<path class="st10" d="M278.69,148.68c0.46-0.73,1.43-0.94,2.16-0.47l0,0c0.72,0.46,0.93,1.43,0.47,2.15l0,0
						c-0.46,0.73-1.43,0.93-2.15,0.47l0,0C278.44,150.36,278.23,149.41,278.69,148.68z M291.42,128.76
						c0.46-0.73,1.43-0.94,2.16-0.48l0,0c0.72,0.46,0.93,1.43,0.47,2.15l0,0c-0.46,0.73-1.43,0.93-2.15,0.47l0,0
						C291.17,130.44,290.96,129.49,291.42,128.76z M304.16,108.84c0.46-0.73,1.43-0.94,2.16-0.48l0,0c0.72,0.46,0.93,1.43,0.47,2.15
						l0,0c-0.46,0.73-1.43,0.93-2.15,0.47l0,0C303.9,110.52,303.69,109.57,304.16,108.84z"/>
				</g>
				<g>
					<path class="st10" d="M317.36,91.07c-0.34-0.22-0.6-0.57-0.69-0.98c-0.08-0.4-0.01-0.83,0.21-1.17
						c0.22-0.35,0.58-0.6,0.98-0.69c0.81-0.18,1.69,0.38,1.86,1.19c0.09,0.39,0.01,0.82-0.21,1.17c-0.22,0.34-0.58,0.59-0.98,0.69
						C318.14,91.37,317.71,91.29,317.36,91.07z"/>
				</g>
			</g>
		</g>
		<g>
			<path class="st7" d="M200.84,57.85l1.52,76.16c0.08,3.82,3.24,6.86,7.06,6.79l42.04-0.84c3.82-0.08,6.86-3.24,6.79-7.06
				l-1.52-76.16c-0.08-3.82-3.24-6.86-7.06-6.79l-42.04,0.84C203.81,50.86,200.77,54.02,200.84,57.85z"/>
			<g>
				<path class="st8" d="M230.43,134.42c-0.67,0.01-1.22-0.52-1.23-1.19l-1.51-75.69c-0.01-0.67,0.52-1.22,1.19-1.23
					c0.67-0.01,1.22,0.52,1.23,1.19l1.51,75.69C231.63,133.85,231.09,134.41,230.43,134.42z"/>
			</g>
			<g>
				<g>
					<path class="st8" d="M210.1,74.28c-1.29,0.03-2.51-0.45-3.44-1.35c-1.92-1.85-1.98-4.91-0.14-6.83l9.16-9.53
						c0.89-0.93,2.1-1.46,3.39-1.48c1.29-0.03,2.51,0.45,3.44,1.35c1.92,1.84,1.98,4.91,0.14,6.83l-9.16,9.53
						C212.59,73.73,211.39,74.26,210.1,74.28z"/>
					<path class="st11" d="M207.94,71.6c1.19,1.14,3.07,1.1,4.21-0.08l4.58-4.76l4.58-4.76c1.14-1.19,1.1-3.07-0.08-4.21
						c-1.19-1.14-3.07-1.1-4.21,0.08l-4.58,4.76l-4.58,4.76C206.71,68.58,206.75,70.46,207.94,71.6L207.94,71.6z"/>
					<path class="st8" d="M210.41,89.89c-1.29,0.03-2.51-0.45-3.44-1.35c-1.92-1.84-1.98-4.91-0.14-6.83l9.16-9.53
						c0.89-0.93,2.1-1.46,3.39-1.48c1.29-0.03,2.51,0.45,3.44,1.35c0.93,0.89,1.46,2.1,1.48,3.39c0.03,1.29-0.45,2.51-1.35,3.44
						l-9.16,9.53C212.9,89.34,211.7,89.86,210.41,89.89z"/>
					<path class="st11" d="M221.53,73.39c-1.19-1.14-3.07-1.1-4.21,0.08l-4.58,4.76L208.16,83c-1.14,1.19-1.1,3.07,0.08,4.21v0
						c1.19,1.14,3.07,1.1,4.21-0.08l4.58-4.76l4.58-4.76C222.75,76.41,222.71,74.53,221.53,73.39L221.53,73.39z"/>
					<path class="st8" d="M210.72,105.5c-1.29,0.03-2.51-0.45-3.44-1.35c-1.92-1.85-1.98-4.91-0.14-6.83l9.16-9.53
						c0.89-0.93,2.1-1.46,3.39-1.48c1.29-0.03,2.51,0.45,3.44,1.35c0.93,0.89,1.46,2.1,1.48,3.39c0.03,1.29-0.45,2.51-1.35,3.44
						l-9.16,9.53C213.21,104.95,212.01,105.47,210.72,105.5z"/>
					<path class="st11" d="M217.63,89.08l-4.58,4.76l-4.58,4.76c-1.14,1.19-1.1,3.07,0.08,4.21c1.19,1.14,3.07,1.1,4.21-0.08
						l4.58-4.76l4.58-4.76c1.14-1.19,1.1-3.07-0.08-4.21C220.65,87.86,218.77,87.89,217.63,89.08z"/>
					<path class="st8" d="M211.03,121.11c-1.29,0.03-2.51-0.45-3.44-1.35c-1.92-1.84-1.98-4.91-0.14-6.83l9.16-9.53
						c0.89-0.93,2.1-1.46,3.39-1.48c1.29-0.03,2.51,0.45,3.44,1.35c0.93,0.89,1.46,2.1,1.48,3.39c0.03,1.29-0.45,2.51-1.35,3.44
						l-9.16,9.53C213.52,120.55,212.32,121.08,211.03,121.11z"/>
					<path class="st11" d="M217.94,104.69l-4.58,4.76l-4.58,4.76c-1.14,1.19-1.1,3.07,0.08,4.21c1.19,1.14,3.07,1.1,4.21-0.08
						l4.58-4.76l4.58-4.76c1.14-1.19,1.1-3.07-0.08-4.21C220.97,103.46,219.08,103.5,217.94,104.69z"/>
					<path class="st8" d="M211.34,136.71c-1.29,0.03-2.51-0.45-3.44-1.35c-1.92-1.85-1.98-4.91-0.14-6.83l9.16-9.53
						c0.89-0.93,2.1-1.46,3.39-1.48c1.29-0.03,2.51,0.45,3.44,1.35c0.93,0.89,1.46,2.1,1.48,3.39c0.03,1.29-0.45,2.51-1.35,3.44
						l-9.16,9.53C213.83,136.16,212.63,136.69,211.34,136.71z"/>
					<path class="st11" d="M218.25,120.29l-4.58,4.76l-4.58,4.76c-1.14,1.19-1.1,3.07,0.08,4.21c1.19,1.14,3.07,1.1,4.21-0.08
						l4.58-4.76l4.58-4.76c1.14-1.19,1.1-3.07-0.08-4.21C221.28,119.07,219.39,119.11,218.25,120.29z"/>
				</g>
				<g>
					<g>
						<path class="st9" d="M212.43,62.63l4.29,4.13l4.58-4.76c1.14-1.19,1.1-3.07-0.08-4.21l0,0c-1.19-1.14-3.07-1.1-4.21,0.08
							L212.43,62.63z"/>
						<path class="st12" d="M207.94,71.6L207.94,71.6c1.19,1.14,3.07,1.1,4.21-0.08l4.58-4.76l-4.29-4.13l-4.58,4.76
							C206.71,68.58,206.75,70.46,207.94,71.6z"/>
					</g>
					<g>
						<path class="st9" d="M212.74,78.24l4.29,4.13l4.58-4.76c1.14-1.19,1.1-3.07-0.08-4.21l0,0c-1.19-1.14-3.07-1.1-4.21,0.08
							L212.74,78.24z"/>
						<path class="st12" d="M208.25,87.21L208.25,87.21c1.19,1.14,3.07,1.1,4.21-0.08l4.58-4.76l-4.29-4.13L208.16,83
							C207.02,84.19,207.06,86.07,208.25,87.21z"/>
					</g>
					<g>
						<path class="st9" d="M213.05,93.84l4.29,4.13l4.58-4.76c1.14-1.19,1.1-3.07-0.08-4.21l0,0c-1.19-1.14-3.07-1.1-4.21,0.08
							L213.05,93.84z"/>
						<path class="st12" d="M208.56,102.82L208.56,102.82c1.19,1.14,3.07,1.1,4.21-0.08l4.58-4.76l-4.29-4.13l-4.58,4.76
							C207.33,99.79,207.37,101.68,208.56,102.82z"/>
					</g>
					<g>
						<path class="st9" d="M213.36,109.45l4.29,4.13l4.58-4.76c1.14-1.19,1.1-3.07-0.08-4.21l0,0c-1.19-1.14-3.07-1.1-4.21,0.08
							L213.36,109.45z"/>
						<path class="st12" d="M208.87,118.42L208.87,118.42c1.19,1.14,3.07,1.1,4.21-0.08l4.58-4.76l-4.29-4.13l-4.58,4.76
							C207.65,115.4,207.68,117.28,208.87,118.42z"/>
					</g>
					<g>
						<path class="st9" d="M213.67,125.06l4.29,4.13l4.58-4.76c1.14-1.19,1.1-3.07-0.08-4.21l0,0c-1.19-1.14-3.07-1.1-4.21,0.08
							L213.67,125.06z"/>
						<path class="st12" d="M209.18,134.03L209.18,134.03c1.19,1.14,3.07,1.1,4.21-0.08l4.58-4.76l-4.29-4.13l-4.58,4.76
							C207.96,131.01,207.99,132.89,209.18,134.03z"/>
					</g>
				</g>
			</g>
			<g>
				<g>
					<path class="st8" d="M238.83,73.71c-1.29,0.03-2.51-0.45-3.44-1.35c-1.92-1.85-1.98-4.91-0.14-6.83l9.16-9.53
						c0.89-0.93,2.1-1.46,3.39-1.48c1.29-0.03,2.51,0.45,3.44,1.35c1.92,1.84,1.98,4.91,0.14,6.83l-9.16,9.53
						C241.32,73.16,240.12,73.69,238.83,73.71z"/>
					<path class="st11" d="M236.67,71.03c1.19,1.14,3.07,1.1,4.21-0.08l4.58-4.76l4.58-4.76c1.14-1.19,1.1-3.07-0.08-4.21
						c-1.19-1.14-3.07-1.1-4.21,0.08l-4.58,4.76l-4.58,4.76C235.45,68.01,235.48,69.89,236.67,71.03L236.67,71.03z"/>
					<path class="st8" d="M239.14,89.32c-1.29,0.03-2.51-0.45-3.44-1.35c-1.92-1.84-1.98-4.91-0.14-6.83l9.16-9.53
						c0.89-0.93,2.1-1.46,3.39-1.48c1.29-0.03,2.51,0.45,3.44,1.35c0.93,0.89,1.46,2.1,1.48,3.39c0.03,1.29-0.45,2.51-1.35,3.44
						l-9.16,9.53C241.63,88.77,240.43,89.29,239.14,89.32z"/>
					<path class="st11" d="M250.26,72.82c-1.19-1.14-3.07-1.1-4.21,0.08l-4.58,4.76l-4.58,4.76c-1.14,1.19-1.1,3.07,0.08,4.21v0
						c1.19,1.14,3.07,1.1,4.21-0.08l4.58-4.76l4.58-4.76C251.49,75.84,251.45,73.95,250.26,72.82L250.26,72.82z"/>
					<path class="st8" d="M239.45,104.93c-1.29,0.03-2.51-0.45-3.44-1.35c-1.92-1.85-1.98-4.91-0.14-6.83l9.16-9.53
						c0.89-0.93,2.1-1.46,3.39-1.48c1.29-0.03,2.51,0.45,3.44,1.35c0.93,0.89,1.46,2.1,1.48,3.39c0.03,1.29-0.45,2.51-1.35,3.44
						l-9.16,9.53C241.94,104.37,240.74,104.9,239.45,104.93z"/>
					<path class="st11" d="M246.36,88.51l-4.58,4.76l-4.58,4.76c-1.14,1.19-1.1,3.07,0.08,4.21s3.07,1.1,4.21-0.08l4.58-4.76
						l4.58-4.76c1.14-1.19,1.1-3.07-0.08-4.21C249.39,87.28,247.5,87.32,246.36,88.51z"/>
					<path class="st8" d="M239.76,120.53c-1.29,0.03-2.51-0.45-3.44-1.35c-1.92-1.85-1.98-4.91-0.14-6.83l9.16-9.53
						c0.89-0.93,2.1-1.46,3.39-1.48c1.29-0.03,2.51,0.45,3.44,1.35c0.93,0.89,1.46,2.1,1.48,3.39c0.03,1.29-0.45,2.51-1.35,3.44
						l-9.16,9.53C242.25,119.98,241.05,120.51,239.76,120.53z"/>
					<path class="st11" d="M246.67,104.11l-4.58,4.76l-4.58,4.76c-1.14,1.19-1.1,3.07,0.08,4.21c1.19,1.14,3.07,1.1,4.21-0.08
						l4.58-4.76l4.58-4.76c1.14-1.19,1.1-3.07-0.08-4.21C249.7,102.89,247.81,102.93,246.67,104.11z"/>
					<path class="st8" d="M240.07,136.14c-1.29,0.03-2.51-0.45-3.44-1.35c-1.92-1.85-1.98-4.91-0.14-6.83l9.16-9.53
						c0.89-0.93,2.1-1.46,3.39-1.48c1.29-0.03,2.51,0.45,3.44,1.35c0.93,0.89,1.46,2.1,1.48,3.39c0.03,1.29-0.45,2.51-1.35,3.44
						l-9.16,9.53C242.56,135.59,241.36,136.11,240.07,136.14z"/>
					<path class="st11" d="M246.99,119.72l-4.58,4.76l-4.58,4.76c-1.14,1.19-1.1,3.07,0.08,4.21c1.19,1.14,3.07,1.1,4.21-0.08
						l4.58-4.76l4.58-4.76c1.14-1.19,1.1-3.07-0.08-4.21C250.01,118.5,248.12,118.54,246.99,119.72z"/>
				</g>
				<g>
					<g>
						<path class="st9" d="M241.16,62.06l4.29,4.13l4.58-4.76c1.14-1.19,1.1-3.07-0.08-4.21l0,0c-1.19-1.14-3.07-1.1-4.21,0.08
							L241.16,62.06z"/>
						<path class="st12" d="M236.67,71.03L236.67,71.03c1.19,1.14,3.07,1.1,4.21-0.08l4.58-4.76l-4.29-4.13l-4.58,4.76
							C235.45,68.01,235.48,69.89,236.67,71.03z"/>
					</g>
					<g>
						<path class="st9" d="M241.47,77.66l4.29,4.13l4.58-4.76c1.14-1.19,1.1-3.07-0.08-4.21l0,0c-1.19-1.14-3.07-1.1-4.21,0.08
							L241.47,77.66z"/>
						<path class="st12" d="M236.98,86.64L236.98,86.64c1.19,1.14,3.07,1.1,4.21-0.08l4.58-4.76l-4.29-4.13l-4.58,4.76
							C235.76,83.61,235.79,85.5,236.98,86.64z"/>
					</g>
					<g>
						<path class="st9" d="M241.79,93.27l4.29,4.13l4.58-4.76c1.14-1.19,1.1-3.07-0.08-4.21l0,0c-1.19-1.14-3.07-1.1-4.21,0.08
							L241.79,93.27z"/>
						<path class="st12" d="M237.29,102.24L237.29,102.24c1.19,1.14,3.07,1.1,4.21-0.08l4.58-4.76l-4.29-4.13l-4.58,4.76
							C236.07,99.22,236.11,101.11,237.29,102.24z"/>
					</g>
					<g>
						<path class="st9" d="M242.1,108.88l4.29,4.13l4.58-4.76c1.14-1.19,1.1-3.07-0.08-4.21l0,0c-1.19-1.14-3.07-1.1-4.21,0.08
							L242.1,108.88z"/>
						<path class="st12" d="M237.6,117.85L237.6,117.85c1.19,1.14,3.07,1.1,4.21-0.08l4.58-4.76l-4.29-4.13l-4.58,4.76
							C236.38,114.83,236.42,116.71,237.6,117.85z"/>
					</g>
					<g>
						<path class="st9" d="M242.41,124.48l4.29,4.13l4.58-4.76c1.14-1.19,1.1-3.07-0.08-4.21l0,0c-1.19-1.14-3.07-1.1-4.21,0.08
							L242.41,124.48z"/>
						<path class="st12" d="M237.91,133.46L237.91,133.46c1.19,1.14,3.07,1.1,4.21-0.08l4.58-4.76l-4.29-4.13l-4.58,4.76
							C236.69,130.43,236.73,132.32,237.91,133.46z"/>
					</g>
				</g>
			</g>
			<g>
				<path class="st10" d="M251.03,121.75c-0.16-0.22-0.24-0.48-0.25-0.75c-0.01-0.35,0.12-0.69,0.36-0.94
					c0.49-0.5,1.36-0.52,1.86-0.04c0.06,0.05,0.11,0.11,0.16,0.18c0.16,0.22,0.25,0.48,0.25,0.75c0.01,0.34-0.13,0.69-0.37,0.94
					c-0.24,0.25-0.57,0.39-0.92,0.4c-0.34,0.01-0.68-0.12-0.94-0.36C251.13,121.87,251.08,121.82,251.03,121.75z"/>
				<path class="st10" d="M250.7,106.3c-0.16-0.22-0.24-0.47-0.25-0.74c-0.01-0.35,0.12-0.68,0.36-0.94
					c0.24-0.25,0.57-0.4,0.92-0.41c0.43-0.01,0.84,0.2,1.1,0.55c0.16,0.22,0.24,0.47,0.25,0.74c0.01,0.35-0.12,0.68-0.37,0.94
					c-0.24,0.25-0.57,0.4-0.92,0.4C251.36,106.85,250.95,106.65,250.7,106.3z M250.37,90.84c-0.16-0.22-0.24-0.47-0.25-0.74
					c-0.02-0.73,0.56-1.33,1.29-1.35c0.43-0.01,0.84,0.2,1.1,0.55c0.16,0.22,0.24,0.47,0.25,0.74c0.01,0.35-0.12,0.68-0.37,0.94
					c-0.24,0.25-0.57,0.4-0.92,0.4C251.04,91.4,250.63,91.19,250.37,90.84z M250.05,75.39c-0.16-0.22-0.24-0.47-0.25-0.74
					c-0.01-0.73,0.56-1.33,1.29-1.35c0.43-0.01,0.84,0.2,1.1,0.55c0.16,0.22,0.24,0.47,0.25,0.74c0.01,0.35-0.12,0.68-0.37,0.94
					c-0.24,0.25-0.57,0.4-0.92,0.4C250.71,75.94,250.3,75.74,250.05,75.39z"/>
				<path class="st10" d="M249.72,59.94c-0.16-0.22-0.24-0.48-0.25-0.75c-0.01-0.35,0.13-0.7,0.37-0.94
					c0.23-0.24,0.57-0.38,0.92-0.39c0.35-0.01,0.7,0.12,0.94,0.35c0.06,0.05,0.11,0.12,0.16,0.18c0.15,0.21,0.24,0.48,0.25,0.74
					c0.01,0.34-0.13,0.69-0.37,0.94c-0.24,0.25-0.57,0.39-0.92,0.4c-0.35,0.01-0.69-0.12-0.94-0.36
					C249.82,60.06,249.77,60,249.72,59.94z"/>
				<path class="st10" d="M222.22,122.38c-0.16-0.22-0.25-0.48-0.25-0.75c-0.01-0.35,0.12-0.69,0.36-0.94
					c0.49-0.5,1.36-0.52,1.86-0.04c0.06,0.06,0.11,0.12,0.16,0.18c0.16,0.22,0.24,0.48,0.25,0.75c0.01,0.35-0.13,0.69-0.37,0.94
					c-0.24,0.25-0.57,0.39-0.92,0.4c-0.34,0.01-0.68-0.12-0.94-0.36C222.32,122.5,222.27,122.44,222.22,122.38z"/>
				<path class="st10" d="M221.89,106.92c-0.16-0.22-0.24-0.47-0.25-0.74c-0.02-0.73,0.56-1.33,1.29-1.35
					c0.43-0.01,0.84,0.2,1.09,0.55c0.16,0.22,0.24,0.47,0.25,0.74c0.01,0.35-0.12,0.68-0.37,0.94c-0.24,0.25-0.57,0.4-0.92,0.4
					C222.55,107.48,222.14,107.27,221.89,106.92z M221.56,91.47c-0.16-0.22-0.24-0.47-0.25-0.74c-0.01-0.35,0.12-0.69,0.36-0.94
					c0.24-0.25,0.57-0.4,0.93-0.41c0.43-0.01,0.84,0.2,1.09,0.55c0.16,0.22,0.24,0.47,0.25,0.74c0.01,0.35-0.12,0.68-0.37,0.94
					c-0.24,0.25-0.57,0.4-0.92,0.4C222.23,92.02,221.82,91.82,221.56,91.47z M221.24,76.02c-0.16-0.22-0.24-0.47-0.25-0.74
					c-0.01-0.35,0.12-0.69,0.36-0.94c0.24-0.25,0.57-0.4,0.93-0.41c0.43-0.01,0.84,0.2,1.09,0.55c0.16,0.22,0.24,0.47,0.25,0.74
					c0.01,0.72-0.56,1.33-1.29,1.34C221.9,76.57,221.49,76.37,221.24,76.02z"/>
				<path class="st10" d="M220.92,60.57c-0.16-0.22-0.25-0.48-0.25-0.75c-0.01-0.35,0.12-0.69,0.36-0.94
					c0.23-0.24,0.57-0.38,0.92-0.39c0.36-0.01,0.7,0.12,0.94,0.35c0.06,0.05,0.11,0.11,0.15,0.18c0.16,0.22,0.24,0.48,0.25,0.75
					c0.01,0.34-0.12,0.68-0.36,0.94c-0.24,0.25-0.58,0.4-0.93,0.41c-0.35,0.01-0.69-0.13-0.94-0.36
					C221.01,60.69,220.96,60.63,220.92,60.57z"/>
			</g>
		</g>
		<g>
			<g>
				<path class="st13" d="M312.21,189.73l8.6-4.47c2.87-1.49,3.98-5.02,2.49-7.89l-33.75-64.94c-1.49-2.87-5.02-3.98-7.89-2.49
					l-8.6,4.47c-2.87,1.49-3.98,5.02-2.49,7.89l33.75,64.94C305.81,190.1,309.34,191.22,312.21,189.73z"/>
				<path class="st14" d="M299.19,164.09l8.11-4.22c1.64-0.85,2.28-2.88,1.43-4.52l-8.76-16.85c-0.85-1.64-2.88-2.28-4.52-1.43
					l-8.11,4.22c-1.64,0.85-2.28,2.88-1.43,4.52l8.76,16.85C295.53,164.3,297.55,164.94,299.19,164.09z"/>
				<g>
					<g>
						<path class="st14" d="M283.61,137.27c-0.26-0.49-0.07-1.09,0.42-1.35l0,0c0.49-0.25,1.09-0.06,1.35,0.43l0,0
							c0.26,0.49,0.06,1.09-0.43,1.35l0,0C284.47,137.95,283.87,137.76,283.61,137.27L283.61,137.27L283.61,137.27z M282.08,134.33
							c-0.25-0.49-0.06-1.09,0.43-1.35l0,0c0.49-0.26,1.09-0.06,1.35,0.43l0,0c0.25,0.49,0.06,1.09-0.43,1.35l0,0
							C282.93,135,282.33,134.82,282.08,134.33L282.08,134.33L282.08,134.33z M280.55,131.37c-0.26-0.49-0.06-1.09,0.42-1.35l0,0
							c0.49-0.26,1.09-0.06,1.35,0.43l0,0c0.25,0.48,0.06,1.09-0.43,1.34l0,0C281.4,132.05,280.8,131.86,280.55,131.37
							L280.55,131.37L280.55,131.37z M279.01,128.42c-0.25-0.49-0.06-1.09,0.43-1.34l0,0c0.49-0.26,1.09-0.06,1.35,0.42l0,0
							c0.25,0.49,0.06,1.09-0.43,1.35l0,0C279.86,129.1,279.26,128.91,279.01,128.42L279.01,128.42
							C279.01,128.43,279.01,128.43,279.01,128.42z M277.48,125.47c-0.26-0.49-0.06-1.09,0.43-1.35l0,0
							c0.49-0.25,1.09-0.06,1.34,0.43l0,0c0.26,0.49,0.06,1.09-0.43,1.35l0,0C278.33,126.14,277.73,125.96,277.48,125.47
							L277.48,125.47C277.48,125.47,277.48,125.47,277.48,125.47z M275.94,122.52c-0.25-0.49-0.06-1.09,0.43-1.35l0,0
							c0.49-0.26,1.09-0.06,1.35,0.43l0,0c0.26,0.49,0.06,1.09-0.43,1.35l0,0C276.79,123.2,276.19,123.01,275.94,122.52
							L275.94,122.52L275.94,122.52z"/>
					</g>
					<g>
						<path class="st14" d="M286.92,132.72c-0.26-0.49-0.07-1.09,0.42-1.35l0,0c0.49-0.26,1.09-0.06,1.35,0.43l0,0
							c0.26,0.49,0.06,1.09-0.43,1.34l0,0C287.78,133.39,287.18,133.21,286.92,132.72L286.92,132.72L286.92,132.72z M285.38,129.76
							c-0.25-0.48-0.06-1.09,0.43-1.34l0,0c0.49-0.26,1.09-0.06,1.35,0.42l0,0c0.25,0.49,0.06,1.09-0.43,1.35l0,0
							C286.24,130.45,285.64,130.25,285.38,129.76L285.38,129.76C285.38,129.77,285.38,129.77,285.38,129.76z M283.85,126.81
							c-0.25-0.48-0.06-1.09,0.42-1.35l0,0c0.49-0.25,1.09-0.06,1.35,0.43l0,0c0.26,0.49,0.06,1.09-0.42,1.35l0,0
							C284.71,127.49,284.11,127.3,283.85,126.81L283.85,126.81C283.85,126.81,283.85,126.81,283.85,126.81z M282.31,123.86
							c-0.26-0.49-0.06-1.09,0.43-1.35l0,0c0.49-0.25,1.09-0.06,1.35,0.43l0,0c0.25,0.49,0.06,1.09-0.43,1.35l0,0
							C283.17,124.54,282.57,124.35,282.31,123.86L282.31,123.86L282.31,123.86z M280.78,120.91c-0.26-0.49-0.06-1.09,0.42-1.35l0,0
							c0.49-0.26,1.1-0.07,1.35,0.43l0,0c0.26,0.49,0.06,1.09-0.42,1.34l0,0C281.64,121.59,281.04,121.4,280.78,120.91
							L280.78,120.91C280.78,120.91,280.78,120.91,280.78,120.91z M279.25,117.96c-0.25-0.49-0.07-1.1,0.43-1.35l0,0
							c0.49-0.26,1.09-0.06,1.35,0.42l0,0c0.25,0.49,0.06,1.09-0.43,1.35l0,0C280.1,118.64,279.5,118.45,279.25,117.96
							L279.25,117.96L279.25,117.96z"/>
					</g>
					<g>
						<path class="st14" d="M292.55,132.63c-0.26-0.49-0.06-1.09,0.43-1.35l0,0c0.49-0.25,1.09-0.06,1.35,0.43l0,0
							c0.25,0.49,0.06,1.09-0.43,1.35l0,0C293.4,133.31,292.8,133.12,292.55,132.63L292.55,132.63L292.55,132.63z M291.02,129.68
							c-0.26-0.49-0.06-1.09,0.42-1.35l0,0c0.49-0.26,1.1-0.07,1.35,0.43l0,0c0.25,0.48,0.06,1.09-0.43,1.34l0,0
							C291.87,130.36,291.27,130.17,291.02,129.68L291.02,129.68L291.02,129.68z M289.48,126.73c-0.25-0.49-0.06-1.09,0.43-1.34l0,0
							c0.49-0.26,1.09-0.07,1.35,0.42l0,0c0.25,0.49,0.06,1.09-0.43,1.35l0,0C290.34,127.41,289.73,127.22,289.48,126.73
							L289.48,126.73C289.48,126.73,289.48,126.73,289.48,126.73z M287.95,123.78c-0.26-0.49-0.06-1.09,0.43-1.35l0,0
							c0.49-0.25,1.09-0.06,1.34,0.43l0,0c0.26,0.49,0.06,1.09-0.42,1.35l0,0C288.8,124.45,288.2,124.27,287.95,123.78
							L287.95,123.78L287.95,123.78z M286.41,120.83c-0.25-0.49-0.06-1.09,0.43-1.35l0,0c0.49-0.26,1.09-0.06,1.35,0.43l0,0
							c0.26,0.49,0.06,1.09-0.43,1.35l0,0C287.27,121.5,286.67,121.32,286.41,120.83L286.41,120.83L286.41,120.83z M284.88,117.88
							c-0.26-0.49-0.06-1.09,0.43-1.35l0,0c0.48-0.25,1.09-0.06,1.34,0.42l0,0c0.26,0.49,0.06,1.09-0.42,1.35l0,0
							C285.73,118.55,285.14,118.37,284.88,117.88L284.88,117.88L284.88,117.88z"/>
					</g>
				</g>
				<g>
					<g>
						<path class="st14" d="M307.55,183.34c-0.25-0.49-0.06-1.09,0.43-1.35l0,0c0.49-0.26,1.09-0.06,1.35,0.43l0,0
							c0.25,0.49,0.06,1.09-0.43,1.34l0,0C308.4,184.01,307.8,183.83,307.55,183.34L307.55,183.34L307.55,183.34z M306.01,180.38
							c-0.25-0.48-0.06-1.09,0.43-1.34l0,0c0.48-0.25,1.09-0.06,1.34,0.42l0,0c0.26,0.49,0.07,1.09-0.42,1.35l0,0
							C306.87,181.06,306.27,180.88,306.01,180.38L306.01,180.38C306.02,180.39,306.02,180.39,306.01,180.38z M304.48,177.43
							c-0.25-0.48-0.07-1.09,0.42-1.34l0,0c0.49-0.26,1.09-0.07,1.35,0.42l0,0c0.26,0.49,0.06,1.09-0.43,1.35l0,0
							C305.34,178.11,304.74,177.92,304.48,177.43L304.48,177.43C304.48,177.43,304.48,177.43,304.48,177.43z M302.95,174.48
							c-0.26-0.49-0.06-1.09,0.43-1.35l0,0c0.49-0.25,1.09-0.06,1.34,0.43l0,0c0.26,0.49,0.07,1.09-0.42,1.35l0,0
							C303.8,175.16,303.2,174.97,302.95,174.48L302.95,174.48L302.95,174.48z M301.42,171.53c-0.26-0.49-0.06-1.09,0.42-1.35l0,0
							c0.49-0.26,1.09-0.06,1.35,0.43l0,0c0.26,0.49,0.06,1.09-0.43,1.34l0,0C302.27,172.2,301.67,172.02,301.42,171.53
							L301.42,171.53L301.42,171.53z M299.88,168.58c-0.26-0.49-0.06-1.09,0.43-1.35l0,0c0.49-0.26,1.09-0.06,1.34,0.42l0,0
							c0.26,0.49,0.07,1.09-0.42,1.35l0,0C300.74,169.26,300.13,169.06,299.88,168.58L299.88,168.58L299.88,168.58z"/>
					</g>
					<g>
						<path class="st14" d="M313.18,183.25c-0.26-0.49-0.06-1.09,0.43-1.35l0,0c0.49-0.26,1.09-0.06,1.34,0.43l0,0
							c0.26,0.49,0.07,1.09-0.42,1.34l0,0C314.04,183.93,313.44,183.74,313.18,183.25L313.18,183.25L313.18,183.25z M311.65,180.29
							c-0.25-0.48-0.07-1.08,0.42-1.34l0,0c0.49-0.26,1.09-0.06,1.35,0.43l0,0c0.25,0.48,0.06,1.09-0.43,1.34l0,0
							C312.51,180.98,311.91,180.79,311.65,180.29L311.65,180.29C311.65,180.3,311.65,180.3,311.65,180.29z M310.11,177.34
							c-0.26-0.49-0.06-1.09,0.43-1.34l0,0c0.49-0.26,1.09-0.06,1.35,0.42l0,0c0.25,0.49,0.06,1.09-0.43,1.35l0,0
							C310.97,178.03,310.37,177.83,310.11,177.34L310.11,177.34C310.11,177.35,310.11,177.35,310.11,177.34z M308.58,174.39
							c-0.26-0.49-0.06-1.09,0.42-1.35l0,0c0.49-0.25,1.09-0.06,1.35,0.43l0,0c0.26,0.49,0.06,1.09-0.42,1.35l0,0
							C309.44,175.08,308.84,174.88,308.58,174.39L308.58,174.39L308.58,174.39z M307.04,171.44c-0.25-0.49-0.06-1.09,0.43-1.35l0,0
							c0.49-0.26,1.09-0.06,1.35,0.43l0,0c0.25,0.49,0.06,1.09-0.43,1.34l0,0C307.9,172.12,307.3,171.93,307.04,171.44
							L307.04,171.44L307.04,171.44z M305.51,168.49c-0.26-0.49-0.06-1.09,0.42-1.35l0,0c0.49-0.26,1.09-0.06,1.35,0.42l0,0
							c0.26,0.49,0.07,1.1-0.42,1.35l0,0C306.37,169.17,305.77,168.98,305.51,168.49L305.51,168.49L305.51,168.49z"/>
					</g>
					<g>
						<path class="st14" d="M316.49,178.69c-0.25-0.48-0.06-1.09,0.43-1.34l0,0c0.48-0.25,1.09-0.06,1.34,0.42l0,0
							c0.26,0.49,0.07,1.09-0.42,1.35l0,0C317.34,179.37,316.75,179.18,316.49,178.69L316.49,178.69
							C316.49,178.69,316.49,178.69,316.49,178.69z M314.95,175.74c-0.26-0.49-0.06-1.09,0.42-1.34l0,0
							c0.49-0.26,1.09-0.07,1.35,0.42l0,0c0.26,0.49,0.06,1.09-0.43,1.35l0,0C315.81,176.42,315.21,176.22,314.95,175.74
							L314.95,175.74L314.95,175.74z M313.42,172.79c-0.26-0.49-0.06-1.09,0.43-1.35l0,0c0.49-0.25,1.09-0.06,1.35,0.43l0,0
							c0.25,0.49,0.06,1.09-0.43,1.35l0,0C314.27,173.46,313.67,173.28,313.42,172.79L313.42,172.79
							C313.42,172.79,313.42,172.79,313.42,172.79z M311.89,169.84c-0.26-0.49-0.06-1.09,0.42-1.35l0,0
							c0.49-0.26,1.09-0.06,1.35,0.43l0,0c0.25,0.48,0.06,1.09-0.43,1.34l0,0C312.74,170.51,312.14,170.33,311.89,169.84
							L311.89,169.84L311.89,169.84z M310.35,166.88c-0.25-0.48-0.06-1.09,0.43-1.34l0,0c0.49-0.26,1.09-0.06,1.34,0.42l0,0
							c0.26,0.49,0.07,1.09-0.42,1.35l0,0C311.21,167.56,310.61,167.38,310.35,166.88L310.35,166.88
							C310.35,166.89,310.35,166.89,310.35,166.88z M308.82,163.93c-0.26-0.49-0.06-1.09,0.42-1.35l0,0
							c0.49-0.25,1.09-0.06,1.35,0.43l0,0c0.26,0.49,0.06,1.09-0.42,1.35l0,0C309.67,164.61,309.07,164.42,308.82,163.93
							L308.82,163.93L308.82,163.93z"/>
					</g>
				</g>
			</g>
			<g>
				<path class="st13" d="M309.32,182.96l9.61-1.28c3.2-0.43,5.46-3.37,5.03-6.57l-9.66-72.55c-0.43-3.2-3.37-5.46-6.57-5.03
					l-9.61,1.28c-3.2,0.43-5.46,3.37-5.03,6.57l9.66,72.55C303.17,181.14,306.12,183.39,309.32,182.96z"/>
				<path class="st14" d="M305.8,154.42l9.06-1.21c1.84-0.24,3.13-1.93,2.88-3.77l-2.51-18.83c-0.24-1.84-1.93-3.13-3.77-2.88
					l-9.06,1.21c-1.84,0.24-3.13,1.93-2.88,3.77l2.51,18.83C302.28,153.38,303.96,154.67,305.8,154.42z"/>
				<g>
					<g>
						<path class="st14" d="M300.27,123.91c-0.07-0.55,0.3-1.05,0.85-1.12l0,0c0.55-0.07,1.05,0.31,1.12,0.86l0,0
							c0.07,0.55-0.31,1.05-0.86,1.12l0,0C300.84,124.84,300.34,124.46,300.27,123.91L300.27,123.91L300.27,123.91z M299.82,120.62
							c-0.07-0.55,0.31-1.05,0.86-1.12l0,0c0.55-0.07,1.05,0.31,1.12,0.86l0,0c0.07,0.54-0.31,1.05-0.86,1.12l0,0
							C300.4,121.54,299.9,121.16,299.82,120.62L299.82,120.62L299.82,120.62z M299.39,117.32c-0.07-0.55,0.31-1.05,0.85-1.12l0,0
							c0.55-0.07,1.05,0.31,1.12,0.86l0,0c0.07,0.54-0.31,1.04-0.86,1.12l0,0C299.96,118.25,299.46,117.87,299.39,117.32
							L299.39,117.32L299.39,117.32z M298.94,114.02c-0.07-0.54,0.31-1.05,0.86-1.12l0,0c0.55-0.07,1.05,0.31,1.12,0.85l0,0
							c0.07,0.55-0.31,1.05-0.86,1.12l0,0C299.52,114.95,299.02,114.57,298.94,114.02L298.94,114.02
							C298.95,114.03,298.95,114.03,298.94,114.02z M298.51,110.72c-0.07-0.55,0.31-1.05,0.86-1.12l0,0
							c0.54-0.07,1.05,0.31,1.12,0.86l0,0c0.07,0.55-0.31,1.05-0.86,1.12l0,0C299.08,111.65,298.58,111.27,298.51,110.72
							L298.51,110.72C298.51,110.72,298.51,110.72,298.51,110.72z M298.07,107.43c-0.07-0.55,0.31-1.05,0.86-1.12l0,0
							c0.55-0.07,1.05,0.31,1.12,0.86l0,0c0.08,0.55-0.31,1.05-0.86,1.12l0,0C298.64,108.35,298.14,107.97,298.07,107.43
							L298.07,107.43L298.07,107.43z"/>
					</g>
					<g>
						<path class="st14" d="M304.93,120.75c-0.08-0.55,0.3-1.05,0.85-1.12l0,0c0.55-0.07,1.05,0.31,1.12,0.86l0,0
							c0.07,0.55-0.31,1.05-0.86,1.12l0,0C305.5,121.68,305,121.3,304.93,120.75L304.93,120.75L304.93,120.75z M304.48,117.45
							c-0.07-0.54,0.31-1.04,0.86-1.12l0,0c0.55-0.07,1.05,0.31,1.12,0.85l0,0c0.07,0.55-0.31,1.05-0.86,1.12l0,0
							C305.06,118.38,304.56,118,304.48,117.45L304.48,117.45C304.48,117.46,304.48,117.46,304.48,117.45z M304.05,114.15
							c-0.07-0.54,0.31-1.05,0.85-1.12l0,0c0.55-0.07,1.05,0.31,1.12,0.86l0,0c0.07,0.55-0.31,1.05-0.85,1.12l0,0
							C304.62,115.09,304.12,114.7,304.05,114.15L304.05,114.15C304.05,114.15,304.05,114.15,304.05,114.15z M303.6,110.86
							c-0.07-0.55,0.31-1.05,0.86-1.12l0,0c0.55-0.07,1.05,0.31,1.12,0.86l0,0c0.07,0.55-0.31,1.05-0.86,1.12l0,0
							C304.18,111.78,303.68,111.41,303.6,110.86L303.6,110.86L303.6,110.86z M303.17,107.56c-0.07-0.55,0.31-1.05,0.85-1.12l0,0
							c0.55-0.07,1.06,0.31,1.12,0.86l0,0c0.08,0.55-0.31,1.05-0.85,1.11l0,0C303.74,108.49,303.24,108.11,303.17,107.56
							L303.17,107.56C303.17,107.56,303.17,107.56,303.17,107.56z M302.73,104.27c-0.07-0.55,0.31-1.06,0.86-1.12l0,0
							c0.55-0.07,1.05,0.31,1.12,0.85l0,0c0.07,0.55-0.31,1.05-0.86,1.12l0,0C303.3,105.19,302.8,104.81,302.73,104.27
							L302.73,104.27L302.73,104.27z"/>
					</g>
					<g>
						<path class="st14" d="M310.25,122.59c-0.07-0.55,0.31-1.05,0.86-1.12l0,0c0.55-0.07,1.05,0.31,1.12,0.86l0,0
							c0.07,0.54-0.31,1.05-0.86,1.12l0,0C310.82,123.51,310.32,123.13,310.25,122.59L310.25,122.59L310.25,122.59z M309.81,119.29
							c-0.07-0.55,0.31-1.05,0.85-1.12l0,0c0.55-0.07,1.06,0.31,1.12,0.86l0,0c0.07,0.54-0.31,1.04-0.86,1.12l0,0
							C310.39,120.22,309.89,119.84,309.81,119.29L309.81,119.29L309.81,119.29z M309.37,115.99c-0.07-0.55,0.31-1.05,0.86-1.12l0,0
							c0.55-0.07,1.05,0.3,1.12,0.85l0,0c0.07,0.55-0.31,1.05-0.86,1.12l0,0C309.94,116.92,309.44,116.53,309.37,115.99
							L309.37,115.99C309.37,115.99,309.37,115.99,309.37,115.99z M308.93,112.69c-0.07-0.55,0.31-1.05,0.86-1.12l0,0
							c0.54-0.07,1.05,0.31,1.12,0.86l0,0c0.07,0.55-0.31,1.05-0.85,1.12l0,0C309.51,113.62,309.01,113.24,308.93,112.69
							L308.93,112.69L308.93,112.69z M308.49,109.4c-0.07-0.55,0.31-1.05,0.86-1.12l0,0c0.55-0.07,1.05,0.31,1.12,0.86l0,0
							c0.07,0.55-0.31,1.05-0.86,1.12l0,0C309.07,110.32,308.56,109.94,308.49,109.4L308.49,109.4L308.49,109.4z M308.05,106.1
							c-0.08-0.55,0.31-1.05,0.86-1.12l0,0c0.54-0.07,1.05,0.31,1.11,0.85l0,0c0.07,0.55-0.31,1.05-0.85,1.12l0,0
							C308.63,107.03,308.13,106.65,308.05,106.1L308.05,106.1L308.05,106.1z"/>
					</g>
				</g>
				<g>
					<g>
						<path class="st14" d="M307.11,175.37c-0.07-0.55,0.31-1.05,0.86-1.12l0,0c0.55-0.07,1.05,0.31,1.12,0.86l0,0
							c0.07,0.55-0.31,1.05-0.86,1.12l0,0C307.68,176.3,307.18,175.92,307.11,175.37L307.11,175.37L307.11,175.37z M306.67,172.07
							c-0.07-0.54,0.31-1.04,0.86-1.12l0,0c0.54-0.07,1.05,0.31,1.11,0.85l0,0c0.07,0.55-0.3,1.05-0.85,1.12l0,0
							C307.25,173,306.75,172.62,306.67,172.07L306.67,172.07C306.67,172.07,306.67,172.07,306.67,172.07z M306.24,168.77
							c-0.07-0.54,0.3-1.05,0.85-1.11l0,0c0.55-0.07,1.05,0.3,1.12,0.85l0,0c0.07,0.55-0.31,1.05-0.86,1.12l0,0
							C306.81,169.7,306.31,169.32,306.24,168.77L306.24,168.77C306.24,168.77,306.24,168.77,306.24,168.77z M305.79,165.47
							c-0.07-0.55,0.31-1.05,0.86-1.12l0,0c0.54-0.07,1.05,0.31,1.12,0.86l0,0c0.07,0.55-0.3,1.05-0.85,1.12l0,0
							C306.37,166.4,305.87,166.02,305.79,165.47L305.79,165.47L305.79,165.47z M305.36,162.18c-0.07-0.55,0.31-1.05,0.85-1.12l0,0
							c0.55-0.07,1.05,0.31,1.12,0.86l0,0c0.07,0.55-0.31,1.05-0.86,1.12l0,0C305.93,163.11,305.43,162.73,305.36,162.18
							L305.36,162.18L305.36,162.18z M304.92,158.88c-0.08-0.55,0.31-1.05,0.86-1.12l0,0c0.55-0.07,1.05,0.31,1.11,0.85l0,0
							c0.07,0.55-0.3,1.05-0.85,1.12l0,0C305.49,159.81,304.99,159.42,304.92,158.88L304.92,158.88L304.92,158.88z"/>
					</g>
					<g>
						<path class="st14" d="M312.44,177.2c-0.08-0.55,0.31-1.05,0.86-1.12l0,0c0.55-0.07,1.05,0.31,1.12,0.86l0,0
							c0.07,0.55-0.3,1.05-0.85,1.11l0,0C313.01,178.13,312.51,177.75,312.44,177.2L312.44,177.2L312.44,177.2z M312,173.9
							c-0.07-0.54,0.31-1.04,0.85-1.11l0,0c0.55-0.07,1.05,0.31,1.12,0.86l0,0c0.07,0.54-0.31,1.04-0.86,1.12l0,0
							C312.58,174.83,312.08,174.45,312,173.9L312,173.9C312,173.91,312,173.91,312,173.9z M311.56,170.6
							c-0.08-0.55,0.31-1.05,0.86-1.12l0,0c0.55-0.07,1.05,0.31,1.12,0.85l0,0c0.07,0.55-0.31,1.05-0.86,1.12l0,0
							C312.13,171.54,311.63,171.15,311.56,170.6L311.56,170.6C311.56,170.61,311.56,170.61,311.56,170.6z M311.12,167.31
							c-0.07-0.55,0.31-1.05,0.85-1.12l0,0c0.55-0.07,1.05,0.31,1.12,0.86l0,0c0.07,0.55-0.31,1.05-0.85,1.12l0,0
							C311.7,168.24,311.2,167.86,311.12,167.31L311.12,167.31L311.12,167.31z M310.68,164.01c-0.07-0.55,0.31-1.05,0.86-1.12l0,0
							c0.55-0.07,1.05,0.31,1.12,0.86l0,0c0.07,0.54-0.31,1.05-0.86,1.12l0,0C311.25,164.94,310.75,164.56,310.68,164.01
							L310.68,164.01L310.68,164.01z M310.24,160.72c-0.07-0.55,0.31-1.05,0.85-1.12l0,0c0.55-0.07,1.05,0.31,1.12,0.85l0,0
							c0.07,0.55-0.31,1.06-0.85,1.12l0,0C310.82,161.64,310.32,161.26,310.24,160.72L310.24,160.72L310.24,160.72z"/>
					</g>
					<g>
						<path class="st14" d="M317.1,174.03c-0.07-0.54,0.31-1.05,0.86-1.12l0,0c0.54-0.07,1.05,0.31,1.11,0.85l0,0
							c0.07,0.55-0.3,1.05-0.85,1.12l0,0C317.67,174.97,317.17,174.59,317.1,174.03L317.1,174.03
							C317.1,174.04,317.1,174.04,317.1,174.03z M316.66,170.74c-0.07-0.55,0.31-1.05,0.85-1.11l0,0c0.55-0.07,1.05,0.3,1.12,0.85
							l0,0c0.07,0.55-0.31,1.05-0.86,1.12l0,0C317.24,171.67,316.73,171.29,316.66,170.74L316.66,170.74L316.66,170.74z
							 M316.22,167.44c-0.08-0.55,0.31-1.05,0.86-1.12l0,0c0.55-0.07,1.05,0.31,1.12,0.86l0,0c0.07,0.55-0.31,1.05-0.86,1.12l0,0
							C316.79,168.37,316.29,167.99,316.22,167.44L316.22,167.44C316.22,167.44,316.22,167.44,316.22,167.44z M315.78,164.15
							c-0.07-0.55,0.31-1.05,0.85-1.12l0,0c0.55-0.07,1.05,0.31,1.12,0.86l0,0c0.07,0.54-0.31,1.05-0.86,1.12l0,0
							C316.36,165.07,315.86,164.7,315.78,164.15L315.78,164.15L315.78,164.15z M315.34,160.84c-0.07-0.54,0.31-1.05,0.86-1.12l0,0
							c0.55-0.07,1.05,0.31,1.11,0.85l0,0c0.07,0.55-0.3,1.05-0.85,1.12l0,0C315.91,161.78,315.41,161.4,315.34,160.84
							L315.34,160.84C315.34,160.85,315.34,160.85,315.34,160.84z M314.9,157.55c-0.07-0.55,0.31-1.05,0.85-1.12l0,0
							c0.55-0.07,1.05,0.31,1.12,0.86l0,0c0.07,0.55-0.31,1.05-0.85,1.12l0,0C315.48,158.48,314.98,158.1,314.9,157.55L314.9,157.55
							L314.9,157.55z"/>
					</g>
				</g>
			</g>
		</g>
		<g>
			<path class="st10" d="M208.11,194.81l31.37-113.04c1.05-3.78,1.57-7.68,1.56-11.6l-0.05-13.74c-0.01-3.9,0.46-7.78,1.4-11.56
				l4.66-18.58c0.34-1.37-0.47-2.76-1.83-3.14l0,0c-1.36-0.38-2.77,0.4-3.18,1.75l-5.58,18.32c-1.14,3.73-2.73,7.3-4.75,10.63
				l-7.13,11.75c-2.03,3.35-3.6,6.97-4.64,10.74l-31.35,112.94c-0.4,1.45,0.1,3,1.28,3.94c4.92,3.93,10.01,5.14,15.22,4.29
				C206.53,197.27,207.71,196.22,208.11,194.81z"/>
			
				<rect x="156.73" y="124.88" transform="matrix(0.2674 -0.9636 0.9636 0.2674 26.7801 305.2836)" class="st15" width="114.86" height="20.3"/>
			<g>
				<g>
					<path class="st8" d="M222.83,82.25l11.11,3.08c0.86,0.24,1.37,1.13,1.13,1.99s-1.13,1.37-1.99,1.13l-11.11-3.08
						c-0.86-0.24-1.37-1.13-1.13-1.99C221.07,82.52,221.97,82.01,222.83,82.25z"/>
				</g>
				<g>
					<path class="st8" d="M223.02,89.25l7.16,1.99c0.86,0.24,1.37,1.13,1.13,1.99c-0.24,0.86-1.13,1.37-1.99,1.13l-7.16-1.99
						c-0.86-0.24-1.37-1.13-1.13-1.99C221.26,89.51,222.15,89.01,223.02,89.25z"/>
				</g>
				<g>
					<path class="st8" d="M219.25,95.14l11.11,3.08c0.86,0.24,1.37,1.13,1.13,1.99c-0.24,0.86-1.13,1.37-1.99,1.13l-11.11-3.08
						c-0.86-0.24-1.37-1.13-1.13-1.99C217.5,95.41,218.39,94.9,219.25,95.14z"/>
				</g>
				<g>
					<path class="st8" d="M219.44,102.14l7.16,1.99c0.86,0.24,1.37,1.13,1.13,1.99c-0.24,0.86-1.13,1.37-1.99,1.13l-7.16-1.99
						c-0.86-0.24-1.37-1.13-1.13-1.99C217.68,102.4,218.58,101.9,219.44,102.14z"/>
				</g>
				<g>
					<path class="st8" d="M215.67,108.03l11.11,3.08c0.86,0.24,1.37,1.13,1.13,1.99c-0.24,0.86-1.13,1.37-1.99,1.13l-11.11-3.08
						c-0.86-0.24-1.37-1.13-1.13-1.99C213.92,108.3,214.81,107.79,215.67,108.03z"/>
				</g>
				<g>
					<path class="st8" d="M215.86,115.03l7.16,1.99c0.86,0.24,1.37,1.13,1.13,1.99c-0.24,0.86-1.13,1.37-1.99,1.13l-7.16-1.99
						c-0.86-0.24-1.37-1.13-1.13-1.99S215,114.79,215.86,115.03z"/>
				</g>
				<g>
					<path class="st8" d="M212.1,120.92l11.11,3.08c0.86,0.24,1.37,1.13,1.13,1.99c-0.24,0.86-1.13,1.37-1.99,1.13l-11.11-3.08
						c-0.86-0.24-1.37-1.13-1.13-1.99C210.34,121.19,211.23,120.69,212.1,120.92z"/>
				</g>
				<g>
					<path class="st8" d="M212.28,127.92l7.16,1.99c0.86,0.24,1.37,1.13,1.13,1.99c-0.24,0.86-1.13,1.37-1.99,1.13l-7.16-1.99
						c-0.86-0.24-1.37-1.13-1.13-1.99C210.53,128.18,211.42,127.68,212.28,127.92z"/>
				</g>
				<g>
					<path class="st8" d="M208.52,133.81l11.11,3.08c0.86,0.24,1.37,1.13,1.13,1.99c-0.24,0.86-1.13,1.37-1.99,1.13l-11.11-3.08
						c-0.86-0.24-1.37-1.13-1.13-1.99C206.76,134.08,207.66,133.58,208.52,133.81z"/>
				</g>
				<g>
					<path class="st8" d="M208.71,140.81l7.16,1.99c0.86,0.24,1.37,1.13,1.13,1.99c-0.24,0.86-1.13,1.37-1.99,1.13l-7.16-1.99
						c-0.86-0.24-1.37-1.13-1.13-1.99C206.95,141.07,207.84,140.57,208.71,140.81z"/>
				</g>
				<g>
					<path class="st8" d="M204.94,146.71l11.11,3.08c0.86,0.24,1.37,1.13,1.13,1.99c-0.24,0.86-1.13,1.37-1.99,1.13l-11.11-3.08
						c-0.86-0.24-1.37-1.13-1.13-1.99S204.08,146.47,204.94,146.71z"/>
				</g>
				<g>
					<path class="st8" d="M205.13,153.7l7.16,1.99c0.86,0.24,1.37,1.13,1.13,1.99c-0.24,0.86-1.13,1.37-1.99,1.13l-7.16-1.99
						c-0.86-0.24-1.37-1.13-1.13-1.99C203.37,153.97,204.27,153.46,205.13,153.7z"/>
				</g>
				<g>
					<path class="st8" d="M201.36,159.6l11.11,3.08c0.86,0.24,1.37,1.13,1.13,1.99c-0.24,0.86-1.13,1.37-1.99,1.13l-11.11-3.08
						c-0.86-0.24-1.37-1.13-1.13-1.99C199.61,159.86,200.5,159.36,201.36,159.6z"/>
				</g>
				<g>
					<path class="st8" d="M201.55,166.59l7.16,1.99c0.86,0.24,1.37,1.13,1.13,1.99c-0.24,0.86-1.13,1.37-1.99,1.13l-7.16-1.99
						c-0.86-0.24-1.37-1.13-1.13-1.99C199.79,166.86,200.69,166.35,201.55,166.59z"/>
				</g>
				<g>
					<path class="st8" d="M197.79,172.49l11.11,3.08c0.86,0.24,1.37,1.13,1.13,1.99c-0.24,0.86-1.13,1.37-1.99,1.13l-11.11-3.08
						c-0.86-0.24-1.37-1.13-1.13-1.99C196.03,172.75,196.92,172.25,197.79,172.49z"/>
				</g>
			</g>
			<g>
				<path class="st8" d="M239.94,42.16c0.86,0.24,1.37,1.13,1.13,1.99L201.76,185.8c-0.24,0.86-1.13,1.37-1.99,1.13
					c-0.86-0.24-1.37-1.13-1.13-1.99l39.31-141.65C238.19,42.42,239.08,41.92,239.94,42.16z"/>
			</g>
			<g>
				
					<rect x="198.53" y="73.25" transform="matrix(0.2674 -0.9636 0.9636 0.2674 96.9807 277.2999)" class="st12" width="64.66" height="3.24"/>
			</g>
			<path class="st16" d="M241.25,51.35c0.23-2.19,0.61-4.35,1.14-6.49l4.66-18.58c0.34-1.37-0.47-2.76-1.83-3.14
				c-1.36-0.38-2.77,0.4-3.18,1.75l-5.58,18.32c-0.64,2.11-1.44,4.16-2.37,6.15L241.25,51.35z"/>
			<g>
				<path class="st10" d="M244.92,24.23c0.86,0.24,1.37,1.13,1.13,1.99l-5.95,21.45c-0.24,0.86-1.13,1.37-1.99,1.13
					c-0.86-0.24-1.37-1.13-1.13-1.99l5.95-21.45C243.16,24.5,244.05,23.99,244.92,24.23z"/>
			</g>
			<g>
				<path class="st15" d="M193.05,187.67l5.65,1.57c0.86,0.24,1.37,1.13,1.13,1.99c-0.24,0.86-1.13,1.37-1.99,1.13l-5.65-1.57
					c-0.86-0.24-1.37-1.13-1.13-1.99S192.19,187.43,193.05,187.67z"/>
			</g>
		</g>
		<g>
			<path class="st7" d="M183.55,181.4l-60.95-64.9c-2.51-2.67-2.38-6.87,0.29-9.37L147,84.48c2.67-2.51,6.87-2.38,9.37,0.29
				l60.95,64.9c2.51,2.67,2.38,6.87-0.29,9.37l-24.11,22.64C190.25,184.2,186.05,184.07,183.55,181.4z"/>
			<g>
				<path class="st8" d="M139.6,103.2l58.29,62.06c0.63,0.67,1.68,0.7,2.35,0.07c0.67-0.63,0.7-1.68,0.07-2.35l-58.29-62.06
					c-0.63-0.67-1.68-0.7-2.35-0.07C139.01,101.47,138.97,102.53,139.6,103.2z"/>
			</g>
			<g>
				<g>
					<path class="st8" d="M144.94,102.47c1.62,1.72,3.91,2.76,6.27,2.83c2.36,0.08,4.71-0.81,6.43-2.43
						c1.73-1.62,2.76-3.9,2.83-6.27c0.08-2.36-0.81-4.71-2.43-6.43c-1.62-1.73-3.91-2.76-6.27-2.83c-2.37-0.07-4.71,0.81-6.44,2.43
						c-1.72,1.62-2.76,3.91-2.83,6.27C142.44,98.4,143.32,100.74,144.94,102.47z"/>
				</g>
				<g>
					<path class="st8" d="M162.95,121.64L162.95,121.64c-3.4-3.62-3.23-9.31,0.39-12.71l0,0c3.62-3.4,9.31-3.22,12.71,0.4l0,0
						c3.4,3.62,3.22,9.31-0.4,12.71C172.03,125.44,166.34,125.26,162.95,121.64z M180.95,140.81L180.95,140.81
						c-3.4-3.62-3.22-9.3,0.4-12.7l0,0c3.62-3.4,9.31-3.23,12.71,0.39l0,0c3.4,3.62,3.22,9.31-0.4,12.71
						C190.04,144.61,184.35,144.42,180.95,140.81z"/>
				</g>
				<g>
					<path class="st8" d="M198.95,159.97c1.62,1.73,3.91,2.76,6.27,2.83c2.36,0.08,4.71-0.81,6.43-2.43
						c1.73-1.62,2.76-3.91,2.83-6.27c0.08-2.36-0.81-4.71-2.43-6.44c-1.62-1.72-3.91-2.76-6.27-2.83c-2.37-0.07-4.71,0.81-6.44,2.43
						c-1.72,1.62-2.76,3.9-2.83,6.27C196.44,155.9,197.33,158.25,198.95,159.97z"/>
				</g>
			</g>
			<g>
				<g>
					<path class="st8" d="M127.99,118.39c1.62,1.72,3.91,2.76,6.27,2.83c2.36,0.08,4.71-0.81,6.43-2.43
						c1.73-1.62,2.76-3.9,2.83-6.27c0.08-2.36-0.81-4.71-2.43-6.43c-1.62-1.73-3.91-2.76-6.27-2.83c-2.37-0.07-4.71,0.81-6.44,2.43
						c-1.72,1.62-2.76,3.91-2.83,6.27C125.48,114.32,126.37,116.66,127.99,118.39z"/>
				</g>
				<g>
					<path class="st8" d="M145.99,137.56L145.99,137.56c-3.4-3.62-3.23-9.31,0.39-12.71l0,0c3.62-3.4,9.31-3.22,12.71,0.4l0,0
						c3.4,3.62,3.22,9.3-0.4,12.71C155.08,141.36,149.39,141.18,145.99,137.56z M164,156.73L164,156.73c-3.4-3.62-3.22-9.3,0.4-12.7
						l0,0c3.62-3.4,9.31-3.23,12.71,0.39l0,0c3.4,3.62,3.23,9.31-0.4,12.71C173.08,160.53,167.39,160.35,164,156.73z"/>
				</g>
				<g>
					<path class="st8" d="M182,175.89c1.62,1.73,3.9,2.76,6.27,2.83c2.36,0.08,4.71-0.81,6.43-2.43c1.73-1.62,2.76-3.91,2.83-6.27
						c0.07-2.37-0.81-4.71-2.43-6.44c-1.62-1.72-3.91-2.76-6.27-2.83c-2.37-0.07-4.71,0.81-6.44,2.43
						c-1.73,1.62-2.76,3.91-2.83,6.27C179.49,171.82,180.38,174.17,182,175.89z"/>
				</g>
			</g>
			<g>
				<g>
					<path class="st11" d="M146.88,100.65c1.14,1.21,2.75,1.93,4.41,1.99c1.67,0.05,3.32-0.58,4.53-1.72c1.22-1.14,1.94-2.75,2-4.41
						c0.05-1.67-0.57-3.32-1.71-4.53c-1.14-1.22-2.75-1.94-4.41-1.99c-1.66-0.05-3.32,0.57-4.53,1.71
						c-1.21,1.14-1.93,2.75-1.99,4.42C145.12,97.78,145.74,99.44,146.88,100.65z"/>
				</g>
				<g>
					<path class="st11" d="M164.89,119.81L164.89,119.81c-2.39-2.54-2.27-6.55,0.27-8.94l0,0c2.55-2.4,6.56-2.26,8.95,0.28l0,0
						c2.39,2.55,2.27,6.54-0.29,8.94C171.28,122.48,167.28,122.36,164.89,119.81z M182.89,138.98L182.89,138.98
						c-2.39-2.55-2.27-6.55,0.27-8.94l0,0c2.55-2.4,6.55-2.26,8.95,0.28l0,0c2.39,2.54,2.27,6.55-0.28,8.95
						C189.28,141.66,185.28,141.53,182.89,138.98z"/>
				</g>
				<g>
					<path class="st11" d="M200.89,158.15c1.14,1.22,2.75,1.94,4.41,1.99c1.67,0.05,3.32-0.57,4.53-1.71
						c1.22-1.14,1.94-2.75,1.99-4.41c0.05-1.66-0.57-3.32-1.71-4.53c-1.14-1.21-2.75-1.93-4.41-1.99c-1.66-0.05-3.31,0.57-4.53,1.72
						c-1.21,1.14-1.94,2.75-2,4.41C199.13,155.29,199.75,156.94,200.89,158.15z"/>
				</g>
			</g>
			<g>
				<g>
					<path class="st11" d="M129.93,116.57c1.14,1.21,2.75,1.94,4.41,2c1.67,0.05,3.32-0.58,4.53-1.72c1.22-1.14,1.94-2.75,2-4.41
						c0.05-1.66-0.57-3.32-1.71-4.53c-1.14-1.22-2.75-1.94-4.41-1.99c-1.67-0.06-3.32,0.57-4.53,1.71
						c-1.21,1.14-1.93,2.75-1.99,4.42C128.17,113.71,128.79,115.35,129.93,116.57z"/>
				</g>
				<g>
					<path class="st11" d="M147.94,135.73L147.94,135.73c-2.39-2.54-2.27-6.55,0.27-8.94l0,0c2.55-2.4,6.56-2.26,8.95,0.28l0,0
						c2.39,2.55,2.27,6.55-0.28,8.95C154.33,138.41,150.33,138.28,147.94,135.73z M165.94,154.9L165.94,154.9
						c-2.39-2.55-2.27-6.55,0.27-8.94l0,0c2.55-2.4,6.55-2.26,8.95,0.28l0,0c2.4,2.55,2.27,6.55-0.28,8.95
						C172.33,157.58,168.33,157.45,165.94,154.9z"/>
				</g>
				<g>
					<path class="st11" d="M183.94,174.07c1.14,1.22,2.75,1.94,4.41,2c1.67,0.05,3.32-0.57,4.53-1.71c1.22-1.14,1.94-2.75,2-4.41
						c0.05-1.67-0.57-3.32-1.72-4.54c-1.14-1.21-2.75-1.94-4.42-1.99c-1.66-0.05-3.31,0.57-4.52,1.72c-1.21,1.14-1.94,2.74-2,4.41
						C182.17,171.21,182.8,172.86,183.94,174.07z"/>
				</g>
			</g>
			<g>
				<g>
					<path class="st10" d="M150.06,92.66c0.3,0.32,0.72,0.51,1.16,0.53c0.45,0.01,0.87-0.14,1.19-0.45c0.32-0.3,0.51-0.72,0.52-1.16
						c0.03-0.88-0.73-1.69-1.61-1.72c-0.44-0.02-0.88,0.15-1.19,0.45c-0.32,0.3-0.5,0.72-0.52,1.16
						C149.6,91.91,149.76,92.33,150.06,92.66z"/>
				</g>
				<g>
					<path class="st10" d="M168.07,111.82L168.07,111.82c-0.63-0.67-0.6-1.72,0.07-2.35l0,0c0.67-0.63,1.72-0.6,2.35,0.07l0,0
						c0.63,0.67,0.6,1.73-0.07,2.36C169.75,112.53,168.7,112.49,168.07,111.82z M186.07,131L186.07,131
						c-0.63-0.67-0.6-1.72,0.07-2.35l0,0c0.67-0.63,1.73-0.6,2.36,0.07l0,0c0.62,0.66,0.59,1.72-0.08,2.35
						C187.75,131.7,186.7,131.66,186.07,131z"/>
				</g>
				<g>
					<path class="st10" d="M204.08,150.16c0.3,0.32,0.71,0.51,1.16,0.53c0.45,0.01,0.86-0.15,1.19-0.45
						c0.32-0.3,0.51-0.72,0.53-1.16c0.03-0.88-0.74-1.69-1.61-1.72c-0.44-0.01-0.88,0.15-1.19,0.45c-0.32,0.3-0.51,0.71-0.52,1.16
						C203.61,149.42,203.77,149.84,204.08,150.16z"/>
				</g>
			</g>
			<g>
				<g>
					<path class="st10" d="M133.11,108.58c0.3,0.32,0.72,0.51,1.16,0.53c0.45,0.01,0.87-0.14,1.19-0.45
						c0.32-0.3,0.51-0.72,0.52-1.16c0.03-0.88-0.74-1.69-1.61-1.72c-0.43-0.02-0.88,0.15-1.19,0.45c-0.32,0.3-0.51,0.72-0.52,1.16
						C132.65,107.83,132.81,108.25,133.11,108.58z"/>
				</g>
				<g>
					<path class="st10" d="M151.12,127.75L151.12,127.75c-0.63-0.67-0.6-1.72,0.07-2.35l0,0c0.67-0.63,1.73-0.6,2.36,0.07l0,0
						c0.63,0.67,0.6,1.73-0.07,2.36C152.8,128.45,151.74,128.42,151.12,127.75z M169.12,146.91L169.12,146.91
						c-0.63-0.67-0.6-1.72,0.07-2.35l0,0c0.67-0.63,1.72-0.6,2.35,0.07l0,0c0.63,0.68,0.6,1.73-0.07,2.36
						C170.8,147.62,169.75,147.59,169.12,146.91z"/>
				</g>
				<g>
					<path class="st10" d="M187.12,166.09c0.3,0.32,0.71,0.51,1.16,0.53c0.44,0.01,0.86-0.15,1.19-0.45
						c0.32-0.3,0.51-0.72,0.53-1.16c0.03-0.88-0.74-1.69-1.61-1.72c-0.44-0.01-0.88,0.15-1.19,0.45c-0.32,0.3-0.51,0.72-0.52,1.16
						C186.66,165.34,186.82,165.76,187.12,166.09z"/>
				</g>
			</g>
		</g>
		<g>
			<path class="st17" d="M214.98,106.18l-2.34,64.01c-0.13,3.65,2.71,6.71,6.36,6.84l29.18,1.06c3.65,0.13,6.71-2.71,6.84-6.36
				l2.34-64.01L214.98,106.18z"/>
			
				<rect x="216.89" y="123.86" transform="matrix(0.9993 0.0365 -0.0365 0.9993 5.2994 -8.4713)" class="st18" width="36.08" height="34.43"/>
			<g>
				<path class="st19" d="M246.18,135.83l-22.08-0.81c-1.37-0.05-2.44-1.2-2.39-2.57c0.05-1.37,1.2-2.44,2.57-2.39l22.08,0.81
					c1.37,0.05,2.44,1.2,2.39,2.57C248.7,134.81,247.55,135.88,246.18,135.83z"/>
			</g>
			<g>
				<path class="st19" d="M242.48,143.83l-15.27-0.56c-1.37-0.05-2.44-1.2-2.39-2.57c0.05-1.37,1.2-2.44,2.57-2.39l15.27,0.56
					c1.37,0.05,2.44,1.2,2.39,2.57C244.99,142.81,243.84,143.88,242.48,143.83z"/>
			</g>
			<g>
				<path class="st19" d="M245.91,151.76l-22.7-0.83c-1.37-0.05-2.44-1.2-2.39-2.57c0.05-1.37,1.2-2.44,2.57-2.39l22.7,0.83
					c1.37,0.05,2.44,1.2,2.39,2.57C248.42,150.74,247.28,151.81,245.91,151.76z"/>
			</g>
			<path class="st7" d="M214.98,106.18l-2.34,64.01c-0.13,3.65,2.71,6.71,6.36,6.84l29.18,1.06c3.65,0.13,6.71-2.71,6.84-6.36
				l2.34-64.01L214.98,106.18z M248.23,171.28l-28.77-1.05l2.28-62.56l28.77,1.05L248.23,171.28z"/>
			<path class="st18" d="M215.1,107.28l42.08,1.54c1.25,0.05,2.3-0.93,2.35-2.18l0.08-2.25c0.05-1.25-0.93-2.3-2.18-2.35
				l-42.08-1.54c-1.25-0.05-2.3,0.93-2.35,2.18l-0.08,2.25C212.87,106.18,213.85,107.23,215.1,107.28z"/>
			<g>
				<path class="st10" d="M242.33,167.83c-1.2-0.04-2.13-1.05-2.09-2.25l1.83-50.07c0.04-1.2,1.05-2.13,2.25-2.09
					c1.2,0.04,2.13,1.05,2.09,2.25l-1.83,50.07C244.53,166.94,243.52,167.87,242.33,167.83z"/>
			</g>
		</g>
		<g>
			<path class="st7" d="M257.65,103.41l-0.29,7.28l-3.98,4.11c-2.33,2.4-3.69,5.58-3.82,8.93l-1.71,43.42
				c-0.12,2.97,2.2,5.47,5.17,5.59l23.77,0.94c2.97,0.12,5.47-2.2,5.59-5.17l1.71-43.42c0.13-3.34-0.97-6.62-3.11-9.2l-3.65-4.41
				l0.29-7.28L257.65,103.41z"/>
			
				<rect x="263.86" y="97.44" transform="matrix(0.0394 -0.9992 0.9992 0.0394 149.6008 370.4787)" class="st8" width="7.26" height="19.98"/>
			
				<rect x="248.72" y="127.94" transform="matrix(0.9992 0.0394 -0.0394 0.9992 5.9368 -10.3733)" class="st19" width="34.56" height="34.82"/>
			
				<rect x="248.83" y="131.65" transform="matrix(0.9992 0.0394 -0.0394 0.9992 5.8214 -10.3801)" class="st11" width="34.56" height="21.53"/>
			<g>
				<path class="st11" d="M272.92,160.64l-14.96-0.59c-1.2-0.05-2.13-1.06-2.08-2.25c0.05-1.2,1.06-2.13,2.25-2.08l14.96,0.59
					c1.2,0.05,2.13,1.06,2.08,2.25C275.13,159.75,274.12,160.68,272.92,160.64z"/>
			</g>
			<path class="st8" d="M284.09,125.09c0.13-3.34-0.97-6.62-3.11-9.2l-3.65-4.41l-19.95-0.79l-3.98,4.11
				c-2.33,2.4-3.69,5.58-3.82,8.93l-1.71,43.42c-0.01,0.14,0,0.27,0,0.41l-0.02,0c0.1,2.79,2.33,5.07,5.16,5.18l23.79,0.94
				c2.83,0.11,5.23-1.99,5.55-4.76l-0.02,0c0.02-0.13,0.03-0.27,0.04-0.41L284.09,125.09z M276.94,165.42
				c-0.07,1.81-1.6,3.22-3.41,3.15l-16.86-0.67c-1.81-0.07-3.22-1.6-3.15-3.41l1.57-39.69c0.1-2.53,1.12-4.94,2.88-6.78l0.28-0.29
				c0.35-0.37,0.67-0.76,0.96-1.16l0,0.02l15.85,0.63c0.26,0.42,0.54,0.83,0.86,1.22l0.25,0.31c1.6,1.96,2.43,4.45,2.33,6.98
				L276.94,165.42z"/>
			<g>
				<path class="st10" d="M273.46,118.57l-2.46-0.1c-1.05-0.04-1.86-0.92-1.82-1.97c0.04-1.05,0.92-1.86,1.97-1.82l2.46,0.1
					c1.05,0.04,1.86,0.92,1.82,1.97C275.39,117.8,274.51,118.61,273.46,118.57z"/>
			</g>
			<path class="st15" d="M272.94,82.8l-0.57-12.98l-7.06-0.28l-1.59,12.81c-0.39,3.16-2.31,5.92-5.14,7.39l0,0l-1.04,10.28
				l20.44,0.81l-0.22-10.08l-0.06-0.04C274.88,89.06,273.09,86.08,272.94,82.8z"/>
			<path class="st7" d="M257.36,107.21l20.25,0.8c0.82,0.03,1.51-0.6,1.54-1.42l0.42-10.54c0.03-0.82-0.6-1.51-1.42-1.54l-20.25-0.8
				c-0.82-0.03-1.51,0.6-1.54,1.42l-0.42,10.53C255.91,106.49,256.54,107.18,257.36,107.21z"/>
			<g>
				<path class="st10" d="M269.86,74.61l-1.45-0.06c-1.05-0.04-1.86-0.92-1.82-1.97c0.04-1.05,0.92-1.86,1.97-1.82l1.45,0.06
					c1.05,0.04,1.86,0.92,1.82,1.97C271.8,73.84,270.91,74.65,269.86,74.61z"/>
			</g>
			<g>
				<path class="st10" d="M273.17,93.13l-2.97-0.12c-1.05-0.04-1.86-0.92-1.82-1.97c0.04-1.05,0.92-1.86,1.97-1.82l2.97,0.12
					c1.05,0.04,1.86,0.92,1.82,1.97C275.11,92.35,274.22,93.17,273.17,93.13z"/>
			</g>
			<g>
				<path class="st15" d="M274.93,99.75l-5.99-0.24c-1.05-0.04-1.86-0.92-1.82-1.97c0.04-1.05,0.92-1.86,1.97-1.82l5.99,0.24
					c1.05,0.04,1.86,0.92,1.82,1.97C276.86,98.97,275.98,99.79,274.93,99.75z"/>
			</g>
			<g>
				<path class="st19" d="M265.8,151.26c-3.42-0.14-6.09-3.03-5.96-6.45c0.1-2.62,3.38-7.26,4.79-9.13l1.89-2.51l1.68,2.65
					c1.25,1.98,4.15,6.85,4.05,9.48C272.11,148.73,269.22,151.4,265.8,151.26z M266.2,141.03c-1.14,1.79-1.97,3.37-2.02,3.97
					c-0.04,1.02,0.76,1.89,1.79,1.93c1.03,0.04,1.9-0.76,1.94-1.79C267.9,144.55,267.2,142.9,266.2,141.03z"/>
			</g>
		</g>
		<g>
			<path class="st18" d="M171.38,97.53l-0.16,5.91l-7.44,9.34c-1.9,2.39-2.97,5.33-3.06,8.38l-1.37,51.9
				c-0.09,3.46,2.64,6.33,6.09,6.42l41.48,1.09c3.46,0.09,6.33-2.64,6.42-6.09l1.37-51.9c0.08-3.05-0.84-6.05-2.61-8.53l-6.94-9.72
				l0.16-5.91L171.38,97.53z"/>
			
				<rect x="160.08" y="129.2" transform="matrix(0.9997 0.0263 -0.0263 0.9997 3.9106 -4.8726)" class="st19" width="54.02" height="33.9"/>
			<path class="st8" d="M212.12,114.06l-6.94-9.72l-33.95-0.89l-7.44,9.34c-1.9,2.39-2.97,5.33-3.06,8.38l-1.37,51.9
				c-0.09,3.46,2.64,6.33,6.09,6.42l41.48,1.09c3.46,0.09,6.33-2.64,6.42-6.09l1.37-51.9C214.81,119.54,213.89,116.54,212.12,114.06
				z M206.91,174.12l-41.08-1.08l1.36-51.7c0.03-1.29,0.41-2.55,1.06-3.66c12.78-6.5,25.83-6.13,39.16,1.03
				c0.59,1.14,0.9,2.42,0.86,3.71L206.91,174.12z"/>
			<path class="st11" d="M168.68,98.38l39.3,1.03l0.46-17.34c0.06-2.24-1.71-4.1-3.95-4.16l-31.19-0.82
				c-2.24-0.06-4.1,1.71-4.16,3.95L168.68,98.38z"/>
			<path class="st19" d="M176.03,98.57l24.59,0.65l0.41-15.43c0.03-1.01-0.77-1.85-1.78-1.88l-20.93-0.55
				c-1.01-0.03-1.85,0.77-1.88,1.78L176.03,98.57z"/>
			<path class="st19" d="M174.11,98.52l-2.43-0.07l0.44-16.07c0.02-0.67,0.58-1.2,1.25-1.18l0,0c0.67,0.02,1.2,0.58,1.18,1.25
				L174.11,98.52z"/>
			<path class="st19" d="M204.88,99.31l-2.43-0.07l0.44-16.07c0.02-0.67,0.58-1.2,1.25-1.18l0,0c0.67,0.02,1.2,0.58,1.18,1.25
				L204.88,99.31z"/>
			
				<rect x="171.43" y="88.78" transform="matrix(0.0273 -0.9996 0.9996 0.0273 85.2063 267.5509)" class="st11" width="17.29" height="2.43"/>
			
				<rect x="188.51" y="89.29" transform="matrix(0.0273 -0.9996 0.9996 0.0273 101.3066 285.1221)" class="st11" width="17.29" height="2.43"/>
			<g>
				<path class="st20" d="M197.71,121.04l-2.87-0.08c-1.13-0.03-2.03-0.97-2-2.11c0.03-1.13,0.97-2.03,2.11-2l2.87,0.08
					c1.13,0.03,2.03,0.97,2,2.11C199.78,120.17,198.84,121.07,197.71,121.04z"/>
			</g>
			<g>
				<path class="st10" d="M198.5,84.19l-2.87-0.08c-1.13-0.03-2.03-0.97-2-2.11c0.03-1.13,0.97-2.03,2.11-2l2.87,0.08
					c1.13,0.03,2.03,0.97,2,2.11C200.58,83.32,199.63,84.22,198.5,84.19z"/>
			</g>
			<g>
				<path class="st18" d="M172.6,146.01c-0.21,8.05,6.15,14.76,14.2,14.97c8.05,0.21,14.76-6.15,14.97-14.2
					c0.21-8.05-6.15-14.76-14.2-14.97C179.51,131.6,172.81,137.95,172.6,146.01z"/>
				
					<rect x="169.37" y="138.78" transform="matrix(0.9997 0.0263 -0.0263 0.9997 3.9169 -4.8747)" class="st18" width="35.62" height="15.22"/>
				<path class="st19" d="M176.66,146.12c-0.15,5.81,4.43,10.65,10.25,10.8c5.81,0.15,10.65-4.43,10.8-10.25s-4.43-10.65-10.25-10.8
					S176.81,140.3,176.66,146.12z"/>
			</g>
		</g>
	</g>
	<path class="st21" d="M323.96,175.11l-2.27-17.03l13.67-21.39l-16.34,1.75l1.14,8.21l-21.06,3.93L295.57,124l-11.77,8.34
		l-0.43,12.37l-34.61-0.78l0.32-7.69l-34.59-4.14l-0.48,14.04l-53.92-0.91l0.46-17.38l-19.8,7.97l19.06,20.29l-0.16,6.26
		l-0.28,10.68c-0.02,0.86,0.13,1.69,0.43,2.45c0.89,2.27,3.07,3.91,5.67,3.97l16.71,0.44l1.38,1.47c1.77,1.89,4.39,2.5,6.71,1.81
		l-1.68,6.07c-0.4,1.45,0.1,3,1.28,3.94c4.92,3.93,10.01,5.14,15.22,4.29c1.45-0.23,2.63-1.29,3.03-2.7l6.06-21.82
		c0.97,2.3,3.19,3.95,5.85,4.05l29.18,1.06c0.23,0.01,0.45,0.01,0.68-0.01c0.18-0.01,0.35-0.04,0.53-0.06
		c0.4,0.41,0.85,0.78,1.35,1.1l33.41,21.35c3.7,2.36,8.61,1.28,10.98-2.42l7.62-11.92l0.57,1.09c1.49,2.87,5.02,3.98,7.89,2.49
		l8.6-4.47c2.65-1.38,3.8-4.49,2.79-7.22C323.95,177.14,324.09,176.14,323.96,175.11z"/>
	<g>
		<polygon class="st22" points="324.98,155.53 305.73,158.53 291.76,155.53 158.24,155.53 151.24,365.88 296.09,371.88 
			336.98,361.88 		"/>
		<path class="st23" d="M246.34,360.78l-31.25-14.56c-5.94-2.77-11.4-6.47-16.16-10.98l-9.35-8.84
			c-9.55-9.02-23.71-11.11-35.46-5.24l-1.4,0.7l-1.46,44.01l144.86,6L246.34,360.78z"/>
		<polygon class="st23" points="324.98,155.53 305.73,158.53 291.76,155.53 296.09,371.88 336.98,361.88 		"/>
		<polygon class="st24" points="305.73,158.53 291.76,155.53 296.09,371.88 312.73,343.32 		"/>
		<g>
			<circle class="st10" cx="225.47" cy="271.24" r="47.58"/>
			<g>
				<g>
					
						<rect x="193.74" y="263.55" transform="matrix(6.123234e-17 -1 1 6.123234e-17 -45.7666 496.7106)" class="st22" width="63.47" height="15.38"/>
					
						<rect x="217.78" y="239.5" transform="matrix(0.5 -0.866 0.866 0.5 -122.163 330.8857)" class="st22" width="15.38" height="63.47"/>
					
						<rect x="193.74" y="263.55" transform="matrix(0.866 -0.5 0.5 0.866 -105.4103 149.0715)" class="st22" width="63.47" height="15.38"/>
				</g>
			</g>
		</g>
		<g>
			<path class="st23" d="M225.19,211.85c-12.55,0-27.31-10.38-33.49-39.93c-0.28-1.35,0.58-2.68,1.93-2.96
				c1.36-0.28,2.68,0.58,2.96,1.93c5.89,28.12,19.55,36.97,30.38,35.87c11.35-1.15,22.87-13.5,22.96-34.86
				c0.01-1.38,1.12-2.49,2.5-2.49c0,0,0.01,0,0.01,0c1.38,0.01,2.5,1.13,2.49,2.51c-0.09,24.32-13.88,38.44-27.45,39.82
				C226.72,211.81,225.96,211.85,225.19,211.85z"/>
		</g>
		<g>
			<path class="st23" d="M194.15,178.16c-3.73,0-6.76-3.03-6.76-6.76s3.03-6.76,6.76-6.76s6.76,3.03,6.76,6.76
				S197.87,178.16,194.15,178.16z M194.15,169.65c-0.97,0-1.76,0.79-1.76,1.76c0,0.97,0.79,1.76,1.76,1.76
				c0.97,0,1.76-0.79,1.76-1.76C195.9,170.44,195.11,169.65,194.15,169.65z"/>
		</g>
		<g>
			<path class="st23" d="M252.43,178.16c-3.73,0-6.76-3.03-6.76-6.76s3.03-6.76,6.76-6.76c3.73,0,6.76,3.03,6.76,6.76
				S256.15,178.16,252.43,178.16z M252.43,169.65c-0.97,0-1.76,0.79-1.76,1.76c0,0.97,0.79,1.76,1.76,1.76s1.76-0.79,1.76-1.76
				C254.18,170.44,253.39,169.65,252.43,169.65z"/>
		</g>
		<g>
			<path class="st10" d="M223.55,204.07c-11.66,0-26.03-8.4-31.83-32.07c-0.33-1.34,0.49-2.69,1.83-3.02
				c1.34-0.33,2.69,0.49,3.02,1.83c5.11,20.85,17.23,28.26,26.98,28.26c0.1,0,0.2,0,0.3,0c12.25-0.19,22.44-11.06,25.96-27.68
				c0.29-1.35,1.62-2.21,2.96-1.93c1.35,0.29,2.21,1.61,1.93,2.96c-4.02,18.99-16.1,31.41-30.77,31.64
				C223.81,204.06,223.68,204.07,223.55,204.07z"/>
		</g>
	</g>
</g>
<g>
	<g>
		<path class="st1" d="M373.71,373.73c2.64-1.45,4.1-4.53,3.37-7.6c-0.88-3.69-4.58-5.96-8.26-5.08l-49.57,8.48
			c-3.69,0.88-5.96,4.58-5.08,8.26c0.88,3.69,4.58,5.96,8.26,5.08l49.57-8.48C372.61,374.25,373.19,374.02,373.71,373.73z"/>
	</g>
	<g>
		<path class="st1" d="M379.87,389.99c2.49-1.27,3.92-4.09,3.33-6.96c-0.72-3.44-4.09-5.65-7.53-4.94l-42.87,6.61
			c-3.44,0.72-5.65,4.09-4.94,7.53c0.72,3.44,4.09,5.65,7.53,4.94l42.87-6.61C378.83,390.44,379.37,390.25,379.87,389.99z"/>
	</g>
	<g>
		<path class="st1" d="M395.37,403.15c2.35-1.04,3.81-3.55,3.41-6.21c-0.48-3.19-3.45-5.39-6.65-4.92l-33.46,3.18
			c-3.19,0.48-5.39,3.45-4.92,6.65c0.48,3.19,3.45,5.39,6.65,4.92l33.46-3.18C394.39,403.51,394.9,403.36,395.37,403.15z"/>
	</g>
	<path class="st25" d="M498.99,390.51l-5.3-51.41l-70.98,7.31c-5.34,15.79-1.87,33.25,5.3,51.41L498.99,390.51z"/>
	<path class="st25" d="M445.41,385.25c4.32-18.28-0.46-34.44-12.68-48.85c-28.38-0.73-52.42,1.45-70.98,7.31
		c-7.73,10.8,12.11,40.53,28.14,60.19l35.3-0.97C434.99,401.93,443.14,394.85,445.41,385.25z"/>
	<path class="st2" d="M487.85,391.65l-5.3-51.41l-34.92,3.6c-5.34,15.79-1.87,33.25,5.3,51.41L487.85,391.65z"/>
	<path class="st6" d="M500,336.04l-47.26,4.87c-5.2,17.19-1.56,36.28,5.82,56.52l41.44-4.27V336.04z"/>
	<path class="st26" d="M500,327.64l-11.24,1.16c-10.33,1.06-18.24,9.7-18.36,20.08c-0.13,11.89,1.67,24.37,4.74,37.24
		c2.36,9.88,11.61,16.55,21.72,15.64l3.13-0.28V327.64z"/>
	<g>
		<path class="st25" d="M366.5,356.41c3.16-1.19,5.04-4.56,4.27-7.95c-0.84-3.69-4.52-6-8.22-5.16l-40.99,9.43
			c-3.69,0.85-6,4.52-5.16,8.22c0.84,3.69,4.52,6,8.22,5.16l40.99-9.43C365.92,356.61,366.22,356.52,366.5,356.41z"/>
	</g>
	<path class="st25" d="M355.16,322.97c0,0,0.19,0.18,0.55,0.53c0.09,0.09,0.19,0.18,0.3,0.29c0.06,0.06,0.1,0.1,0.19,0.18
		c0.11,0.09,0.22,0.18,0.34,0.27c0.47,0.37,1.04,0.81,1.65,1.24c0.52,0.33,1.09,0.7,1.72,1.1c0.61,0.34,1.28,0.72,1.99,1.09
		c1.4,0.7,2.96,1.42,4.62,2.07c6.64,2.66,15.02,4.77,22.91,7.13c1.97,0.59,3.91,1.18,5.76,1.81c1.87,0.61,3.63,1.26,5.3,1.9
		c1.64,0.66,3.2,1.31,4.56,1.99c0.7,0.33,1.34,0.66,1.93,0.99c0.62,0.32,1.15,0.66,1.67,0.97c1.03,0.63,1.85,1.24,2.52,1.77
		c0.64,0.54,1.16,1,1.49,1.39c0.38,0.37,0.58,0.67,0.73,0.86c0.15,0.19,0.23,0.29,0.23,0.29l0.1,0.13
		c3.96,4.89,11.14,5.65,16.03,1.69c4.89-3.96,5.65-11.14,1.69-16.03c-0.33-0.41-0.74-0.84-1.12-1.19c0,0-0.29-0.27-0.84-0.78
		c-0.55-0.51-1.36-1.26-2.42-2.04c-1.06-0.84-2.35-1.69-3.84-2.59c-1.49-0.87-3.16-1.74-4.96-2.52c-0.9-0.38-1.84-0.8-2.79-1.13
		c-0.96-0.37-1.94-0.72-2.94-1.03c-2.01-0.67-4.08-1.22-6.2-1.75c-2.11-0.5-4.28-0.98-6.44-1.38c-2.17-0.41-4.33-0.77-6.48-1.11
		c-4.18-0.62-8.35-1.25-12.27-1.84c-1.91-0.29-3.69-0.6-5.37-0.9c-1.64-0.32-3.2-0.63-4.52-0.97c-1.36-0.32-2.48-0.68-3.45-1
		c-0.45-0.17-0.87-0.32-1.26-0.47c-0.34-0.15-0.65-0.29-0.93-0.41c-0.16-0.08-0.26-0.11-0.39-0.15l-0.09-0.02
		c-0.04-0.02-0.12-0.09-0.18-0.13c-0.12-0.09-0.23-0.17-0.33-0.25c-0.4-0.29-0.61-0.45-0.61-0.45l-0.02-0.02
		c-3.06-2.25-7.36-1.59-9.61,1.47C352.33,316.75,352.72,320.61,355.16,322.97z"/>
	<path class="st1" d="M356.19,323.96c0.11,0.09,0.22,0.18,0.34,0.27c0.47,0.37,1.04,0.81,1.65,1.24c0.52,0.33,1.09,0.7,1.72,1.1
		c0.61,0.34,1.28,0.72,1.99,1.09c1.4,0.7,2.96,1.42,4.62,2.07c6.64,2.66,17.41,5.63,25.3,7.99c0.17,0.05,13.81-1.42,21.53-0.36
		c-0.32-0.35-10.53-4.35-15.36-5.36c-6.68-1.4-13.36-2.1-20.13-2.89c-7.52-0.88-15.34-2.26-22.09-5.56
		c0.08,0.07,0.16,0.15,0.25,0.24C356.07,323.84,356.1,323.88,356.19,323.96z"/>
</g>
<g>
	<g>
		<path class="st1" d="M184.2,394.92c-2.84-0.9-4.9-3.55-4.94-6.69c-0.04-3.92,3.1-7.13,7.02-7.17l15.66-0.17l0.92-1.16
			l-21.77-14.49c-3.26-2.17-4.15-6.57-1.97-9.84c2.17-3.26,11.64,11.03,14.9,13.19l23.12,3.59c1.65,1.1,2.77,2.84,3.08,4.8
			c0.31,1.96-0.22,3.96-1.45,5.51l-7.81,9.85c-1.33,1.68-3.34,2.66-5.48,2.68l-19.04,0.2C185.65,395.27,184.9,395.15,184.2,394.92z"
			/>
	</g>
	<g>
		<path class="st1" d="M174.01,402.24c-2.78-0.89-4.84-3.45-4.94-6.54c-0.12-3.92,2.95-7.19,6.87-7.31l17.81-0.61l-22.85-15.21
			c-3.26-2.17-4.15-6.57-1.98-9.84c2.17-3.26,6.57-4.14,9.83-1.98l28.19,18.76c3.03,2.02,4.04,6,2.34,9.22l-4.95,9.36
			c-1.19,2.25-3.5,3.69-6.05,3.77l-21.91,0.69C175.56,402.59,174.76,402.48,174.01,402.24z"/>
	</g>
	<path class="st25" d="M70.73,357.23l15.53-44.22l69.9,23.5c2.24,15.26-4.72,29.87-15.53,44.22L70.73,357.23z"/>
	<path class="st25" d="M123.89,375.1c-6.65-28.2,4.29-36.86,23.51-47.88c25.33,14.37,45.05,26.06,57.61,46.18
		c2.11,7.94-15.55,21.84-24.96,29.99c-2.07,1.8-5.02,2.16-7.44,0.87L123.89,375.1z"/>
	<path class="st2" d="M81.71,360.92l15.53-44.22l34.39,11.56c2.24,15.26-4.72,29.87-15.53,44.22L81.71,360.92z"/>
	<path class="st27" d="M39.21,352.64l19.07-55.56l69.78,23.95c1.22,18.52-6.9,36.9-19.07,55.56L39.21,352.64z"/>
	<path class="st10" d="M0,271.34v81.87l88.26,29.55c14.09-24.26,24.13-48.24,24.56-71.57L0,271.34z"/>
	<g>
		<path class="st25" d="M216.13,368.93l23.27-0.3c0.93,0.69,1.17,3.36,0.12,5.64l-13.64,6.03c-3.03,0.87-5.57,2.35-9.94,2.53
			l-26.96-0.15c-0.28-0.05-0.54-0.12-0.81-0.21c-3.38-1.08-5.5-4.54-4.8-8.11c0.75-3.85,6.84-11.23,10.69-10.48L216.13,368.93z"/>
	</g>
	<g>
		<path class="st25" d="M220.36,360.08c-3.08,0.75-6.45,0.72-9.31,0.22c-6.01-1.05-11.5-3.98-17.04-6.54
			c-3.83-1.77-7.81-3.4-12-4.08c-4.5-0.74-9.15-0.22-13.71-0.76c-3.9-0.46-6.88-1.66-10.98-0.94l-0.93,0.09
			c-6.49,0.65-12.33-4.12-13.05-10.66c-1.13-10.29,7.13-11.84,15.19-14.14c7.66-2.18,16.66-3.15,23.38,1.12
			c6.67,4.24,14.54,13.65,20.99,17.86c5.48,3.57,10.89,6.09,17.62,8.36c4.13,1.4,10.03,2.45,5.95,6.32
			C224.82,358.52,222.67,359.52,220.36,360.08z"/>
		<path class="st1" d="M221.39,359.8c-2.81,0.86-6.8,1.12-10.33,0.5c-6.01-1.05-11.5-3.98-17.04-6.54c-5.87-2.71-8.3-3.23-8.3-3.23
			s-11.36-13.56-4.87-11.34c6.48,2.22,9.86,4.59,15.62,8.32c5.43,3.52,11.18,6.55,17.15,9.05c4.26,1.78,8.53,3.63,12.27,0.92
			C224.17,358.64,223.51,359.15,221.39,359.8z"/>
	</g>
</g>
</svg>
