<svg xmlns="http://www.w3.org/2000/svg" data-name="Layer 1" viewBox="0 0 100 100"><path d="M63.592 58.229c-3.1 0-6.453 2.928-4.3 7.824a3.054 3.054 0 0 0 .518.813 5.158 5.158 0 0 0 7.45.169 5.219 5.219 0 0 0 0-7.323 5.287 5.287 0 0 0-3.668-1.483zM40.049 39.822a5.144 5.144 0 0 0-3.661-8.806 5.107 5.107 0 0 0-3.626 1.484 5.218 5.218 0 0 0 0 7.324 5.157 5.157 0 0 0 7.287-.002z"/><path d="M44.193 5.375a43.663 43.663 0 0 0-30.178 68.2 8.69 8.69 0 0 1 1.393 5.671l-1.334 13.383a2.154 2.154 0 0 0 2.8 2.265l14.232-4.575a8.936 8.936 0 0 1 5.234-.081 41.793 41.793 0 0 0 18.1 2A43.739 43.739 0 1 0 44.193 5.375Zm-15.7 22.845a11.538 11.538 0 0 1 15.826 0 11.262 11.262 0 0 1 0 15.88 11.21 11.21 0 0 1-15.826-15.88Zm3.966 43.309a3.024 3.024 0 0 1-4.272 0 3.021 3.021 0 0 1 0-4.276l39.345-39.347a3.022 3.022 0 0 1 4.261-.013l.021.02a3.023 3.023 0 0 1 .012 4.289Zm39.073-.229a11.206 11.206 0 1 1 0-15.87 11.2 11.2 0 0 1 0 15.87Z"/></svg>