<svg width="80" height="80" viewBox="0 0 80 80" fill="none" xmlns="http://www.w3.org/2000/svg">
<path d="M40.0001 44.5149C40.5987 44.5149 41.1728 44.2771 41.5961 43.8538C42.0194 43.4305 42.2572 42.8564 42.2572 42.2578V28.7151C42.2572 28.1165 42.0194 27.5424 41.5961 27.1191C41.1728 26.6958 40.5987 26.458 40.0001 26.458C39.4015 26.458 38.8274 26.6958 38.4041 27.1191C37.9808 27.5424 37.743 28.1165 37.743 28.7151V42.2578C37.743 42.8564 37.9808 43.4305 38.4041 43.8538C38.8274 44.2771 39.4015 44.5149 40.0001 44.5149ZM40.0001 53.5434C40.5581 53.5434 41.1036 53.3779 41.5676 53.0679C42.0316 52.7579 42.3932 52.3172 42.6067 51.8017C42.8203 51.2862 42.8762 50.7189 42.7673 50.1716C42.6584 49.6243 42.3897 49.1215 41.9951 48.727C41.6006 48.3324 41.0978 48.0637 40.5505 47.9548C40.0032 47.8459 39.4359 47.9018 38.9204 48.1154C38.4049 48.3289 37.9642 48.6905 37.6542 49.1545C37.3442 49.6185 37.1787 50.164 37.1787 50.722C37.1787 51.4703 37.476 52.1879 38.0051 52.717C38.5342 53.2461 39.2518 53.5434 40.0001 53.5434Z" fill="#FFC700"/>
<circle opacity="0.3" cx="40" cy="40" r="39" stroke="#FFC700" stroke-width="2"/>
</svg>
